<svg width="364" height="226" viewBox="0 0 364 226" fill="none" xmlns="http://www.w3.org/2000/svg">
<g clip-path="url(#clip0_188_880)">
<path d="M75.5643 225.999C117.297 225.999 151.129 195.144 151.129 157.083C151.129 119.021 117.297 88.166 75.5643 88.166C33.8313 88.166 0 119.021 0 157.083C0 195.144 33.8313 225.999 75.5643 225.999Z" fill="#FFFBED"/>
<path d="M288.462 225.999C330.195 225.999 364.026 195.144 364.026 157.083C364.026 119.021 330.195 88.166 288.462 88.166C246.729 88.166 212.897 119.021 212.897 157.083C212.897 195.144 246.729 225.999 288.462 225.999Z" fill="#FFFBED"/>
<path d="M182.013 176.378C240.803 176.378 288.462 136.895 288.462 88.1891C288.462 39.4836 240.803 0 182.013 0C123.223 0 75.5645 39.4836 75.5645 88.1891C75.5645 136.895 123.223 176.378 182.013 176.378Z" fill="#FFFBED"/>
<path d="M75.5645 226.001H279.126L206.881 163.321L128.387 149.609L75.5645 226.001Z" fill="#FFFBED"/>
</g>
<defs>
<clipPath id="clip0_188_880">
<rect width="364" height="226" fill="white"/>
</clipPath>
</defs>
</svg>
