<svg width="667" height="1517" viewBox="0 0 667 1517" fill="none" xmlns="http://www.w3.org/2000/svg">
<g clip-path="url(#clip0_190_899)">
<path d="M593.543 1364.95C607.373 1360.2 615.761 1345.94 611.907 1333.55L525.528 1044.32C521.674 1031.72 507.391 1025.31 493.561 1030.27C479.732 1035.02 471.343 1049.28 475.197 1061.67L561.576 1350.9C565.204 1363.3 579.714 1369.7 593.543 1364.95Z" fill="#FFDFC4"/>
<path d="M569.286 1336.65C569.286 1336.65 531.651 1422.38 547.068 1411.43C562.484 1400.48 569.513 1391.39 569.513 1391.39L587.65 1449.44C588.557 1452.75 592.184 1456.47 596.265 1455.02C598.306 1454.2 598.079 1453.78 599.213 1452.13C602.387 1447.17 590.371 1406.47 590.371 1406.47C590.371 1406.47 606.921 1450.27 613.949 1447.79C620.977 1445.31 617.577 1438.08 617.577 1438.08L605.561 1401.52C605.561 1401.52 622.111 1444.69 629.593 1440.35C637.074 1436.02 615.99 1392.63 615.99 1392.63C615.99 1392.63 633.673 1431.68 638.434 1426.1C643.196 1420.52 626.419 1380.44 626.419 1380.44L610.095 1328.38L569.286 1336.65Z" fill="#FFDFC4"/>
<path d="M50.7849 1341.81C38.3155 1335.61 32.1942 1320.74 37.1819 1308.76L155.755 1030.06C160.969 1017.87 175.479 1013.12 187.948 1019.32C200.418 1025.52 206.539 1040.39 201.551 1052.38L82.9786 1331.07C77.7641 1343.05 63.2543 1348.01 50.7849 1341.81Z" fill="#FFDFC4"/>
<path d="M77.0839 1316.4C77.0839 1316.4 102.023 1405.44 88.8732 1393.05C75.7236 1380.65 70.2824 1370.73 70.2824 1370.73L45.5703 1426.72C44.21 1430.03 40.3559 1433.12 36.7284 1431.26C34.9147 1430.23 35.1414 1429.82 34.2345 1428.17C31.9673 1423 48.291 1383.54 48.291 1383.54C48.291 1383.54 26.9796 1425.27 20.6315 1422.38C14.2834 1419.49 18.5911 1412.46 18.5911 1412.46L34.4612 1377.34C34.4612 1377.34 13.3766 1418.66 6.57513 1413.5C-0.226369 1408.33 25.3926 1367.43 25.3926 1367.43C25.3926 1367.43 3.85447 1404.41 0.000291923 1398.42C-3.85389 1392.43 17.2308 1354.21 17.2308 1354.21L39.2223 1304.21L77.0839 1316.4Z" fill="#FFDFC4"/>
<path d="M215.607 981.101C215.607 981.101 120.84 1019.73 139.204 1039.36C157.568 1058.99 209.033 1063.53 209.033 1063.53L215.607 981.101Z" fill="#DFEBEF"/>
<path d="M475.198 1000.93C475.198 1000.93 564.298 1048.45 542.76 1066.63C521.222 1084.81 469.304 1084.4 469.304 1084.4L475.198 1000.93Z" fill="#DFEBEF"/>
<path d="M388.139 569.366L623.697 696.42C705.995 571.226 667.454 410.911 538.225 341.083C409.45 271.668 236.012 316.705 153.487 441.073L388.139 569.366Z" fill="#804C29"/>
<path d="M646.368 583.414C650.222 550.153 644.554 513.38 644.554 513.38Z" fill="#9BCAE5"/>
<path d="M646.368 583.414C650.222 550.153 644.554 513.38 644.554 513.38" stroke="#F0FDFD" stroke-width="11" stroke-miterlimit="10"/>
<path d="M615.988 453.055C603.972 415.662 583.341 396.448 583.341 396.448Z" fill="#9BCAE5"/>
<path d="M615.988 453.055C603.972 415.662 583.341 396.448 583.341 396.448" stroke="#F0FDFD" stroke-width="11" stroke-miterlimit="10"/>
<path d="M353.904 328.481C320.35 334.679 299.266 355.338 299.266 355.338Z" fill="#9BCAE5"/>
<path d="M353.904 328.481C320.35 334.679 299.266 355.338 299.266 355.338" stroke="#F0FDFD" stroke-width="11" stroke-miterlimit="10"/>
<path d="M232.611 386.531C202.005 409.67 225.356 389.217 202.005 409.67Z" fill="#9BCAE5"/>
<path d="M232.611 386.531C202.005 409.67 225.356 389.217 202.005 409.67" stroke="#F0FDFD" stroke-width="11" stroke-miterlimit="10"/>
<path d="M431.669 131.392L479.279 130.566L482.453 313.605L434.843 314.432L431.669 131.392Z" stroke="#804C29" stroke-width="11" stroke-miterlimit="10"/>
<path d="M397.888 591.057L193.617 498.091C196.111 486.935 201.098 477.019 208.353 468.549C252.79 416.694 374.763 429.503 478.826 496.645C555.91 546.434 605.787 615.022 603.974 669.355L397.888 591.057Z" fill="#804C29"/>
<path d="M410.13 615.228L350.957 591.264L309.921 572.051L267.979 549.532L233.064 527.634C230.797 526.188 228.757 524.741 226.716 523.089L202.684 502.843L601.252 669.355L600.345 673.9L544.346 659.026L473.157 637.334L410.13 615.228Z" fill="#804C29"/>
<path d="M426.454 1364.33C436.883 1364.12 445.951 1360.2 448.672 1354.83C471.57 1310.41 562.484 1120.14 432.122 1118.49C356.852 1117.66 315.136 1117.25 292.464 1117.04C278.634 1117.04 267.299 1123.44 268.432 1130.88L299.039 1355.45C299.946 1361.85 309.921 1366.81 322.164 1366.6L426.454 1364.33Z" fill="#804C29"/>
<path d="M202.685 1369.08C195.43 1369.29 189.082 1365.57 187.042 1360.4C170.945 1316.81 106.784 1129.64 197.697 1123.44C250.295 1119.93 279.315 1118.07 294.959 1117.24C304.707 1116.63 312.416 1122.82 311.736 1130.26L291.104 1355.86C290.424 1362.47 283.396 1367.63 275.007 1367.63L202.685 1369.08Z" fill="#804C29"/>
<path d="M222.182 1368.67L229.21 1210.42C229.663 1197.82 236.465 1185.83 247.574 1177.57L291.784 1144.72C310.828 1130.47 338.714 1130.26 357.305 1144.1L401.061 1176.12C412.17 1184.39 418.518 1196.37 418.518 1209.18L418.972 1364.54" fill="#FFDFC4"/>
<path d="M321.711 1360.2L188.855 1365.16C189.535 1444.49 242.36 1507.29 321.484 1505.84C401.062 1504.4 466.583 1437.67 466.81 1357.72L321.711 1360.2Z" fill="#070405"/>
<path d="M333.812 1500.69C328.707 1501.84 325.542 1506.37 326.743 1510.8C327.944 1515.23 333.056 1517.89 338.161 1516.74C343.267 1515.59 346.432 1511.07 345.231 1506.64C344.03 1502.21 338.917 1499.55 333.812 1500.69Z" fill="#070405"/>
<path d="M266.392 1349.04L253.695 1129.44L172.078 1154.64L213.793 1361.23L266.392 1349.04Z" fill="#804C29"/>
<path d="M234.878 1292.85C234.878 1292.85 207.672 1314.54 199.511 1286.24C191.349 1257.93 235.559 1213.31 235.559 1213.31" fill="#FFDFC4"/>
<path d="M457.287 122.303L411.717 123.129C411.037 79.9515 430.988 43.7981 455.927 43.385C480.866 42.9718 502.177 78.0922 502.857 121.476V121.683L457.287 122.303Z" stroke="#727272" stroke-width="11" stroke-miterlimit="10"/>
<path d="M438.924 324.968C472.931 336.124 509.659 346.867 509.659 346.867Z" fill="#9BCAE5"/>
<path d="M438.924 324.968C472.931 336.124 509.659 346.867 509.659 346.867" stroke="#F0FDFD" stroke-width="10" stroke-miterlimit="10"/>
<path d="M503.084 688.157L496.509 715.84L253.923 694.767L257.323 671.836L503.084 688.157Z" fill="#DFEBEF"/>
<path d="M350.73 1090.18V1145.55L299.946 1141.62L304.707 1084.6L350.73 1090.18Z" fill="#FFDFC4"/>
<path d="M362.52 1091.63L360.933 1120.55L291.557 1113.94L293.598 1083.16L362.52 1091.63Z" fill="#DFEBEF"/>
<path d="M381.564 701.792L389.952 702.411L397.661 703.031L489.481 710.468C501.95 711.501 511.019 723.277 509.432 736.706L468.85 1083.78C468.85 1083.78 385.645 1097.62 387.458 1101.13C389.272 1104.64 388.592 1141.62 372.949 1129.44C357.305 1117.04 348.917 1098.03 348.917 1098.03L312.189 1095.14C312.189 1095.14 298.359 1112.29 282.262 1122.2C266.165 1132.12 272.286 1095.35 274.554 1092.25C276.821 1088.94 205.859 1062.71 205.859 1062.71L233.518 714.6C234.651 701.172 245.761 691.049 258.23 692.082L338.261 698.486L345.289 699.106L352.771 699.726" fill="#D30B2D"/>
<path d="M188.855 1364.95C188.855 1364.95 489.028 1296.15 491.975 1327.97C495.149 1359.99 454.114 1375.07 454.114 1375.07L188.855 1364.95Z" fill="#070405"/>
<path d="M511.699 648.284L499.23 687.33L257.323 671.836L333.954 416.489L421.239 402.854L372.269 599.322" fill="#717982"/>
<path d="M421.239 402.853C421.239 402.853 397.434 387.359 378.843 389.838C360.253 392.523 333.953 416.281 333.953 416.281L255.283 95.2384C255.283 95.2384 315.136 -24.791 365.92 4.54492C416.705 34.0875 330.553 104.742 330.553 104.742L421.239 402.853Z" fill="black"/>
<path d="M421.239 402.853C421.239 402.853 405.823 392.523 399.474 389.631C387.685 384.466 329.419 400.167 333.953 416.281" fill="#717982"/>
</g>
<defs>
<clipPath id="clip0_190_899">
<rect width="667" height="1517" fill="white" transform="translate(667 1517) rotate(180)"/>
</clipPath>
</defs>
</svg>
