<svg width="1378" height="1814" viewBox="0 0 1378 1814" fill="none" xmlns="http://www.w3.org/2000/svg">
<rect x="277" y="64.4414" width="1100.9" height="582.163" rx="42" fill="#FFA061"/>
<path d="M635.397 260.113L635.301 219.889L615.525 253.009H608.613L588.837 220.657V260.113H574.245V192.913H587.109L612.261 234.673L637.029 192.913H649.893L649.989 260.113H635.397ZM692.699 224.977C699.419 225.041 704.507 226.545 707.963 229.489C711.419 232.433 713.147 236.657 713.147 242.161C713.147 247.921 711.195 252.369 707.291 255.505C703.387 258.641 697.851 260.209 690.683 260.209L665.531 260.113V208.465H680.411V224.977H692.699ZM718.715 208.465H733.595V260.113H718.715V208.465ZM689.339 249.553C692.219 249.617 694.427 249.009 695.963 247.729C697.499 246.449 698.267 244.529 698.267 241.969C698.267 239.473 697.499 237.649 695.963 236.497C694.491 235.345 692.283 234.737 689.339 234.673L680.411 234.577V249.553H689.339ZM826.386 240.529H819.186V260.113H804.402V240.529H797.202L786.258 260.113H768.594L784.818 233.425L769.746 208.465H785.586L797.01 228.529H804.402V208.465H819.186V228.529H826.482L838.002 208.465H853.842L838.77 233.425L855.09 260.113H837.33L826.386 240.529ZM920.762 247.825V271.249H906.842V260.113H870.554V271.249H856.634V247.825H858.746C861.946 247.761 864.154 245.873 865.37 242.161C866.586 238.449 867.354 233.169 867.674 226.321L868.346 208.465H913.37V247.825H920.762ZM881.21 227.377C881.018 232.625 880.602 236.913 879.962 240.241C879.386 243.569 878.266 246.097 876.602 247.825H898.394V220.753H881.498L881.21 227.377ZM980.395 234.481C980.395 234.673 980.299 236.017 980.107 238.513H941.035C941.739 241.713 943.403 244.241 946.027 246.097C948.651 247.953 951.915 248.881 955.819 248.881C958.507 248.881 960.875 248.497 962.923 247.729C965.035 246.897 966.987 245.617 968.779 243.889L976.747 252.529C971.883 258.097 964.779 260.881 955.435 260.881C949.611 260.881 944.459 259.761 939.979 257.521C935.499 255.217 932.043 252.049 929.611 248.017C927.179 243.985 925.963 239.409 925.963 234.289C925.963 229.233 927.147 224.689 929.515 220.657C931.947 216.561 935.243 213.393 939.403 211.153C943.627 208.849 948.331 207.697 953.515 207.697C958.571 207.697 963.147 208.785 967.243 210.961C971.339 213.137 974.539 216.273 976.843 220.369C979.211 224.401 980.395 229.105 980.395 234.481ZM953.611 219.025C950.219 219.025 947.371 219.985 945.067 221.905C942.763 223.825 941.355 226.449 940.843 229.777H966.283C965.771 226.513 964.363 223.921 962.059 222.001C959.755 220.017 956.939 219.025 953.611 219.025ZM1042.27 260.113V229.201L1026.82 255.121H1020.48L1005.41 229.105V260.113H991.874V208.465H1007.52L1024.03 238.321L1041.6 208.465H1055.62L1055.81 260.113H1042.27ZM488.531 325.465H503.411V356.185L528.563 325.465H542.291V377.113H527.411V346.393L502.355 377.113H488.531V325.465ZM607.087 377.113V346.201L591.631 372.121H585.295L570.223 346.105V377.113H556.687V325.465H572.335L588.847 355.321L606.415 325.465H620.431L620.623 377.113H607.087ZM685.176 351.481C685.176 351.673 685.08 353.017 684.888 355.513H645.816C646.52 358.713 648.184 361.241 650.808 363.097C653.432 364.953 656.696 365.881 660.6 365.881C663.288 365.881 665.656 365.497 667.704 364.729C669.816 363.897 671.768 362.617 673.56 360.889L681.528 369.529C676.664 375.097 669.56 377.881 660.216 377.881C654.392 377.881 649.24 376.761 644.76 374.521C640.28 372.217 636.824 369.049 634.392 365.017C631.96 360.985 630.744 356.409 630.744 351.289C630.744 346.233 631.928 341.689 634.296 337.657C636.728 333.561 640.024 330.393 644.184 328.153C648.408 325.849 653.112 324.697 658.296 324.697C663.352 324.697 667.928 325.785 672.024 327.961C676.12 330.137 679.32 333.273 681.624 337.369C683.992 341.401 685.176 346.105 685.176 351.481ZM658.392 336.025C655 336.025 652.152 336.985 649.848 338.905C647.544 340.825 646.136 343.449 645.624 346.777H671.064C670.552 343.513 669.144 340.921 666.84 339.001C664.536 337.017 661.72 336.025 658.392 336.025ZM696.656 325.465H711.536V345.625H734V325.465H748.976V377.113H734V357.817H711.536V377.113H696.656V325.465ZM763.312 325.465H778.192V345.625H800.656V325.465H815.632V377.113H800.656V357.817H778.192V377.113H763.312V325.465ZM854.16 377.881C848.72 377.881 843.824 376.761 839.472 374.521C835.184 372.217 831.824 369.049 829.392 365.017C826.96 360.985 825.744 356.409 825.744 351.289C825.744 346.169 826.96 341.593 829.392 337.561C831.824 333.529 835.184 330.393 839.472 328.153C843.824 325.849 848.72 324.697 854.16 324.697C859.6 324.697 864.464 325.849 868.752 328.153C873.04 330.393 876.4 333.529 878.832 337.561C881.264 341.593 882.48 346.169 882.48 351.289C882.48 356.409 881.264 360.985 878.832 365.017C876.4 369.049 873.04 372.217 868.752 374.521C864.464 376.761 859.6 377.881 854.16 377.881ZM854.16 365.593C858 365.593 861.136 364.313 863.568 361.753C866.064 359.129 867.312 355.641 867.312 351.289C867.312 346.937 866.064 343.481 863.568 340.921C861.136 338.297 858 336.985 854.16 336.985C850.32 336.985 847.152 338.297 844.656 340.921C842.16 343.481 840.912 346.937 840.912 351.289C840.912 355.641 842.16 359.129 844.656 361.753C847.152 364.313 850.32 365.593 854.16 365.593ZM963.36 337.753H945.888V377.113H931.008V337.753H913.536V325.465H963.36V337.753ZM1019.39 351.481C1019.39 351.673 1019.3 353.017 1019.11 355.513H980.035C980.739 358.713 982.403 361.241 985.027 363.097C987.651 364.953 990.915 365.881 994.819 365.881C997.507 365.881 999.875 365.497 1001.92 364.729C1004.03 363.897 1005.99 362.617 1007.78 360.889L1015.75 369.529C1010.88 375.097 1003.78 377.881 994.435 377.881C988.611 377.881 983.459 376.761 978.979 374.521C974.499 372.217 971.043 369.049 968.611 365.017C966.179 360.985 964.963 356.409 964.963 351.289C964.963 346.233 966.147 341.689 968.515 337.657C970.947 333.561 974.243 330.393 978.403 328.153C982.627 325.849 987.331 324.697 992.515 324.697C997.571 324.697 1002.15 325.785 1006.24 327.961C1010.34 330.137 1013.54 333.273 1015.84 337.369C1018.21 341.401 1019.39 346.105 1019.39 351.481ZM992.611 336.025C989.219 336.025 986.371 336.985 984.067 338.905C981.763 340.825 980.355 343.449 979.843 346.777H1005.28C1004.77 343.513 1003.36 340.921 1001.06 339.001C998.755 337.017 995.939 336.025 992.611 336.025ZM1060.73 329.017C1065.66 329.017 1069.98 330.041 1073.69 332.089C1077.4 334.073 1080.25 336.889 1082.23 340.537C1084.28 344.185 1085.31 348.409 1085.31 353.209C1085.31 358.137 1084.09 362.521 1081.66 366.361C1079.29 370.137 1075.96 373.081 1071.67 375.193C1067.39 377.241 1062.52 378.265 1057.08 378.265C1048.06 378.265 1040.95 375.385 1035.77 369.625C1030.65 363.801 1028.09 355.289 1028.09 344.089C1028.09 333.721 1030.33 325.465 1034.81 319.321C1039.35 313.113 1046.3 309.049 1055.64 307.129L1080.22 302.233L1082.23 315.097L1060.54 319.417C1054.65 320.569 1050.27 322.489 1047.39 325.177C1044.57 327.865 1042.91 331.673 1042.39 336.601C1044.63 334.169 1047.32 332.313 1050.46 331.033C1053.59 329.689 1057.02 329.017 1060.73 329.017ZM1057.18 366.649C1061.02 366.649 1064.09 365.401 1066.39 362.905C1068.76 360.409 1069.95 357.241 1069.95 353.401C1069.95 349.497 1068.76 346.393 1066.39 344.089C1064.09 341.785 1061.02 340.633 1057.18 340.633C1053.27 340.633 1050.14 341.785 1047.77 344.089C1045.4 346.393 1044.22 349.497 1044.22 353.401C1044.22 357.305 1045.43 360.505 1047.87 363.001C1050.3 365.433 1053.4 366.649 1057.18 366.649ZM1139.76 325.465V377.113H1126.42V362.329H1115.38L1105.59 377.113H1089.65L1101.46 360.217C1097.87 358.809 1095.12 356.793 1093.2 354.169C1091.35 351.481 1090.42 348.249 1090.42 344.473C1090.42 338.393 1092.59 333.721 1096.95 330.457C1101.36 327.129 1107.41 325.465 1115.09 325.465H1139.76ZM1115.38 337.657C1112.18 337.657 1109.75 338.233 1108.08 339.385C1106.48 340.537 1105.68 342.393 1105.68 344.953C1105.68 347.513 1106.45 349.401 1107.99 350.617C1109.59 351.769 1111.99 352.345 1115.19 352.345H1126.42V337.657H1115.38ZM1151.95 309.913H1169.8L1166.83 353.785H1154.92L1151.95 309.913ZM1160.88 377.881C1158.25 377.881 1156.04 377.049 1154.25 375.385C1152.52 373.657 1151.66 371.577 1151.66 369.145C1151.66 366.713 1152.52 364.697 1154.25 363.097C1155.98 361.433 1158.19 360.601 1160.88 360.601C1163.56 360.601 1165.77 361.433 1167.5 363.097C1169.23 364.697 1170.09 366.713 1170.09 369.145C1170.09 371.577 1169.2 373.657 1167.4 375.385C1165.68 377.049 1163.5 377.881 1160.88 377.881Z" fill="black"/>
<ellipse cx="824.615" cy="32.221" rx="34.0134" ry="32.221" fill="#F18F3F"/>
<rect x="790.602" y="646.605" width="73.6958" height="271.967" fill="#F18F3F"/>
<g clip-path="url(#clip0_192_989)">
<path d="M787.992 888.025L821.855 863.212L831.718 869.251L827.509 883.725L853.37 877.22L885.914 926.155L802.052 942.45L780.697 928.602L787.992 888.025Z" fill="#FFDFC4"/>
<path d="M148.647 1126.98C136.148 1121.5 129.604 1107.93 134.138 1096.75L235.408 839.987C239.735 828.779 253.629 824.14 265.921 829.583C278.42 835.056 284.964 848.631 280.429 859.808L178.952 1116.54C174.655 1127.56 160.969 1132.23 148.647 1126.98Z" fill="#FFDFC4"/>
<path d="M831.588 928.844C825.187 939.747 809.99 944.575 797.787 939.91L517.114 829.935C504.94 825.083 500.174 812.343 506.544 801.628C512.945 790.725 528.142 785.897 540.345 790.562L821.018 900.537C833.192 905.389 837.959 918.129 831.588 928.844Z" fill="#FFDFC4"/>
<path d="M173.03 1103.06C173.03 1103.06 201.095 1184.2 188.005 1173.09C174.914 1161.99 168.932 1152.9 168.932 1152.9L147.802 1204.43C146.675 1207.51 143.031 1210.41 139.477 1208.74C137.7 1207.9 137.759 1207.53 136.96 1205.88C134.532 1201.13 148.55 1164.99 148.55 1164.99C148.55 1164.99 129.91 1203.51 123.75 1200.88C117.589 1198.25 121.174 1191.71 121.174 1191.71L135.014 1159.36C135.014 1159.36 116.641 1197.54 109.74 1192.89C103.047 1188.27 125.804 1150.55 125.804 1150.55C125.804 1150.55 106.572 1184.78 102.782 1179.25C98.9913 1173.73 117.305 1138.6 117.305 1138.6L136.302 1092.48L173.03 1103.06Z" fill="#FFDFC4"/>
<path d="M291.029 889.267C291.029 889.267 197.725 867.486 210.703 847.236C223.681 826.986 269.39 815.765 269.39 815.765L291.029 889.267Z" fill="#DFEBEF"/>
<path d="M522.859 835.175C522.859 835.175 594.673 779.846 571.748 766.531C548.824 753.216 501.605 760.583 501.605 760.583L522.859 835.175Z" fill="#DFEBEF"/>
<path d="M485.72 1233.23L719.216 1149.96C776.509 1274.19 718.244 1413.87 590.032 1459.55C462.294 1504.91 310.14 1440.82 252.521 1317.31L485.72 1233.23Z" fill="#804C29"/>
<path d="M723.697 1255.33C722.655 1285.93 711.984 1318.37 711.984 1318.37Z" fill="#9BCAE5"/>
<path d="M723.697 1255.33C722.655 1285.93 711.984 1318.37 711.984 1318.37" stroke="#F0FDFD" stroke-width="11" stroke-miterlimit="10"/>
<path d="M677.199 1369.03C660.841 1401.2 639.215 1415.78 639.215 1415.78Z" fill="#9BCAE5"/>
<path d="M677.199 1369.03C660.841 1401.2 639.215 1415.78 639.215 1415.78" stroke="#F0FDFD" stroke-width="11" stroke-miterlimit="10"/>
<path d="M419.83 1446.3C390.032 1436.17 373.715 1414.66 373.715 1414.66Z" fill="#9BCAE5"/>
<path d="M419.83 1446.3C390.032 1436.17 373.715 1414.66 373.715 1414.66" stroke="#F0FDFD" stroke-width="11" stroke-miterlimit="10"/>
<path d="M317.233 1377.48C292.563 1352.45 310.983 1374.08 292.563 1352.45Z" fill="#9BCAE5"/>
<path d="M317.233 1377.48C292.563 1352.45 310.983 1374.08 292.563 1352.45" stroke="#F0FDFD" stroke-width="11" stroke-miterlimit="10"/>
<path d="M462.446 1634.86L505.87 1642.02L535.051 1477.04L491.627 1469.87L462.446 1634.86Z" stroke="#804C29" stroke-width="11" stroke-miterlimit="10"/>
<path d="M497.751 1214.94L297.586 1271.41C298.265 1281.83 301.403 1291.46 306.822 1300.09C340.017 1352.95 453.408 1357.82 558.219 1311.18C635.865 1276.58 691.328 1221.32 697.47 1171.98L497.751 1214.94Z" fill="#804C29"/>
<path d="M508.39 1196.07L449.499 1210.12L408.323 1222.2L365.605 1237.3L329.641 1252.64C327.36 1253.64 325.286 1254.67 323.183 1255.89L297.587 1271.41L695.279 1172.42L695.132 1168L640.508 1173.89L570.776 1184.06L508.39 1196.07Z" fill="#804C29"/>
<path d="M636.419 1175.58L607.165 1113.95L387.213 1162.72L490.546 1397.88L574.435 1394.77L500.361 1201.19" fill="#717982"/>
<path d="M410.095 513.8C419.634 512.532 428.609 514.811 432.133 519.342C461.303 556.124 579.846 715.564 461.533 734.995C393.312 746.336 355.662 752.249 334.985 755.506C322.366 757.466 310.933 753.297 310.549 746.362L296.106 539.41C295.781 533.439 303.899 527.758 314.978 526.143L410.095 513.8Z" fill="#804C29"/>
<path d="M206.144 540.669C199.627 541.619 194.531 545.644 193.73 550.685C187.324 592.348 164.39 770.096 248.043 763.132C296.446 758.996 323.135 756.626 337.562 755.314C346.389 754.514 352.522 747.966 350.391 741.347L289.351 540.518C287.516 534.706 280.259 530.961 272.439 532.101L206.144 540.669Z" fill="#804C29"/>
<path d="M223.917 538.321L260.145 680.274C263.016 691.588 271.219 701.396 283.008 707.337L329.331 730.981C349.354 741.193 374.533 737.645 389.021 722.585L422.619 687.416C431.241 678.56 434.62 666.639 432.223 655.013L403.37 514.72" fill="#FFDFC4"/>
<path d="M315.924 532.206L194.442 546.203C180.15 474.548 216.42 410.539 288.402 400.899C360.859 390.947 432.919 442.268 448.189 514.45L315.924 532.206Z" fill="#070405"/>
<path d="M291.919 395.465C292.175 391.298 296.314 388.188 301.165 388.519C306.016 388.85 309.742 392.496 309.486 396.664C309.231 400.831 305.091 403.941 300.24 403.61C295.389 403.279 291.664 399.632 291.919 395.465Z" fill="#070405"/>
<path d="M267.725 549.748L297.454 749.973L218.841 738.573L217.576 546.175L267.725 549.748Z" fill="#804C29"/>
<path d="M249.615 604.969C249.615 604.969 220.944 589.087 218.806 615.903C216.668 642.719 265.181 676.621 265.181 676.621" fill="#FFDFC4"/>
<path d="M484.572 1646.53L443.014 1639.63C436.193 1678.56 449.249 1713.92 471.998 1717.66C494.747 1721.4 519.279 1692.53 526.13 1653.42L526.16 1653.23L484.572 1646.53Z" stroke="#727272" stroke-width="11" stroke-miterlimit="10"/>
<path d="M496.873 1460.91C529.577 1455.41 564.709 1450.65 564.709 1450.65Z" fill="#9BCAE5"/>
<path d="M496.873 1460.91C529.577 1455.41 564.709 1450.65 564.709 1450.65" stroke="#F0FDFD" stroke-width="10" stroke-miterlimit="10"/>
<path d="M579.029 1388.57C579.029 1388.57 552.989 1400.2 534.743 1394.84C516.704 1389.5 494.079 1362.29 494.079 1362.29L367.207 1662.66C367.207 1662.66 408.563 1788.36 463.694 1767.26C518.824 1746.15 443.512 1664.55 443.512 1664.55L579.029 1388.57Z" fill="black"/>
<path d="M607.164 1113.95L596.15 1089.78L379.841 1142.34L387.213 1162.72L607.164 1113.95Z" fill="#DFEBEF"/>
<path d="M393.07 771.904L382.772 721.855L337.182 732.329L352.427 783.299L393.07 771.904Z" fill="#FFDFC4"/>
<path d="M403.525 768.861L396.57 743.188L334.924 758.555L342.412 786.217L403.525 768.861Z" fill="#DFEBEF"/>
<path d="M494.186 1118.5L501.681 1116.74L508.524 1115.08L590.343 1095.61C601.6 1092.88 607.526 1080.95 603.678 1069.11L501.486 761.331C501.486 761.331 423.315 760.505 424.293 757.019C425.271 753.533 417.606 720.304 405.754 733.46C393.873 746.802 389.693 765.101 389.693 765.101L356.841 772.868C356.841 772.868 340.966 759.254 324.616 752.64C308.267 746.026 320.553 778.217 323.337 780.729C326.121 783.241 266.663 816.891 266.663 816.891L357.391 1127.37C360.795 1139.34 372.938 1147.05 384.195 1144.32L455.646 1127.34L461.808 1125.96L468.651 1124.29" fill="#D30B2D"/>
<path d="M194.442 546.203C194.442 546.203 479.784 566.683 476.561 537.548C473.338 508.413 433.232 500.399 433.232 500.399L194.442 546.203Z" fill="#070405"/>
</g>
<defs>
<clipPath id="clip0_192_989">
<rect width="752.21" height="1344.97" fill="white" transform="matrix(-0.989305 -0.145863 -0.156901 0.987614 956 485)"/>
</clipPath>
</defs>
</svg>
