<svg width="1108" height="1625" viewBox="0 0 1108 1625" fill="none" xmlns="http://www.w3.org/2000/svg">
<g clip-path="url(#clip0_188_657)">
<path d="M868.243 861.614C876.78 868.117 876.434 879.865 867.554 887.916L662.113 1071.41C653.233 1079.46 638.917 1080.56 630.38 1074.06C621.843 1067.55 622.189 1055.81 631.07 1047.76L836.728 864.319C845.608 856.268 859.706 855.11 868.243 861.614Z" fill="#FFDFC4"/>
<path d="M841.51 853.259C841.51 853.259 887.116 790.234 880.018 813.563C872.92 836.891 871.885 842.052 871.885 842.052C871.885 842.052 935.58 800.105 932.098 808.677C928.57 817.438 895.321 840.375 895.321 840.375C895.321 840.375 943.442 814.064 941.538 819.012C937.515 828.855 900.883 850.562 900.883 850.562C900.883 850.562 960.079 824.157 947.54 834.922C935.002 845.687 911.626 861.216 911.626 861.216C911.626 861.216 947.8 847.018 944.176 853.349C939.793 860.898 855.462 894.981 855.462 894.981L837.394 863.481L841.51 853.259Z" fill="#FFDFC4"/>
<path d="M148.385 1226.68C139.072 1219.59 137.773 1207.03 145.831 1198.58L330.572 1005.61C338.63 997.154 352.899 996.238 362.258 1003.14C371.571 1010.24 372.87 1022.79 364.813 1031.24L180.072 1224.22C172.231 1232.72 157.916 1233.83 148.385 1226.68Z" fill="#FFDFC4"/>
<path d="M607.985 1126.93C607.985 1126.93 701.299 1077.8 689.83 1054.13C678.407 1030.28 638.591 1013.3 638.591 1013.3L607.985 1126.93Z" fill="#DFEBEF"/>
<path d="M383.069 948.281C383.069 948.281 286.871 997.905 302.281 1023.34C317.691 1048.77 363.45 1067.81 363.45 1067.81L383.069 948.281Z" fill="#DFEBEF"/>
<path d="M176.499 1235.98C176.499 1235.98 138.295 1302.62 142.538 1277.79C146.78 1252.96 147.209 1247.45 147.209 1247.45C147.209 1247.45 88.1075 1291.32 90.5963 1282.11C93.085 1272.89 123.867 1248.75 123.867 1248.75C123.867 1248.75 78.5232 1275.94 79.7749 1270.83C82.5881 1260.29 117.094 1237.86 117.094 1237.86C117.094 1237.86 60.6758 1265.15 71.9572 1253.88C83.2387 1242.6 105.14 1226.51 105.14 1226.51C105.14 1226.51 70.2702 1241.03 73.2886 1234.35C76.8488 1226.4 157.969 1191.33 157.969 1191.33L180.056 1225.22L176.499 1235.98Z" fill="#FFDFC4"/>
<path d="M516.209 1414.08C526.852 1416.68 537.165 1415 541.333 1410.2C575.653 1370.68 715.96 1199.31 582.875 1162.69C506.108 1141.47 463.551 1130.04 440.45 1123.78C426.425 1119.94 413.12 1123.5 412.305 1131.52L388.019 1370.63C387.265 1377.47 396.439 1385.13 408.82 1388.16L516.209 1414.08Z" fill="#804C29"/>
<path d="M286.398 1358.76C279.013 1356.95 273.424 1351.57 272.597 1345.56C266.905 1296.43 247.866 1086.61 342.421 1104.77C396.982 1115.13 427.062 1121.1 443.492 1124.52C453.575 1126.59 460.082 1134.8 457.53 1142.4L380.418 1368.77C378.144 1375.23 369.678 1378.77 360.99 1376.64L286.398 1358.76Z" fill="#804C29"/>
<path d="M535.023 1245.22C535.023 1245.22 575.898 1300.15 561.887 1328.21C547.876 1356.26 521.559 1328.35 521.559 1328.35" fill="#FFDFC4"/>
<path d="M335.109 1283.06C335.109 1283.06 301.976 1298.01 300.645 1266.8C299.359 1235.4 355.523 1201.63 355.523 1201.63" fill="#FFDFC4"/>
<path d="M306.38 1363.66L352.764 1202.56C356.35 1189.8 366.314 1179.21 379.648 1173.65L433.155 1151.67C456.18 1142.27 484.633 1149.24 500.395 1168.55L537.057 1213.43C546.436 1224.95 549.892 1239.03 546.865 1252.33L508.608 1412.21" fill="#FFDFC4"/>
<path d="M410.226 1381.49L260.856 1346.49C241.962 1428.29 292.712 1511.52 373.992 1531.24C455.705 1551.06 539.369 1499.97 559.271 1417.81L410.226 1381.49Z" fill="#070405"/>
<path d="M260.099 1350.51C260.099 1350.51 597.157 1360.91 592.396 1394.44C587.634 1427.97 541.881 1432.4 541.881 1432.4L260.099 1350.51Z" fill="#070405"/>
<path d="M503.135 1112.27L492.883 1163.5L444.523 1149.44L459.753 1097.62L503.135 1112.27Z" fill="#FFDFC4"/>
<path d="M685.631 789.392L709.783 741.565L451.967 678.389L446.494 730.793L685.631 789.392Z" fill="#DFEBEF"/>
<path d="M575.554 759.411L583.59 761.38L590.975 763.19L678.724 784.692C690.67 787.619 697.987 800.041 694.756 812.284L610.545 1127.76C610.545 1127.76 528.462 1127.3 529.892 1130.85C531.322 1134.41 525.677 1168.73 512.278 1154.81C498.88 1140.9 492.968 1121.81 492.968 1121.81L457.782 1113.18C457.782 1113.18 442.237 1126.82 425.399 1133.53C408.56 1140.23 419.201 1107.14 421.944 1104.4C424.64 1101.85 359.462 1066.23 359.462 1066.23L431.293 747.725C434.089 735.375 446.103 727.69 458.266 730.671L534.503 749.352L541.019 750.949L548.187 752.705" fill="#D30B2D"/>
<path d="M702.832 739.862L462.175 680.891L452.793 397.834L526.836 408.557L565.653 586.524C567.772 596.669 569.193 606.844 578.335 613.697C590.069 622.187 611.942 625.943 630.129 601.521C662.941 557.822 703.419 451.828 703.419 451.828L784.023 478.999L702.832 739.862Z" fill="#717982"/>
<path d="M778.526 506.131C778.526 506.131 767.724 481.625 750.221 474.127C732.718 466.629 695.76 471.812 695.76 471.812L825.33 178.885C825.33 178.885 949.807 115.334 974.98 164.819C1000.15 214.304 883.507 225.228 883.507 225.228L778.526 506.131Z" fill="black"/>
<path d="M454.008 437.037C454.008 437.037 469.255 419.917 487.245 417.908C505.065 415.657 536.291 435.742 536.291 435.742L480.398 107.597C480.398 107.597 378.371 10.0001 344.346 50.1937C310.322 90.3872 416.302 135.208 416.302 135.208L454.008 437.037Z" fill="black"/>
</g>
<defs>
<clipPath id="clip0_188_657">
<rect width="777.099" height="1481.49" fill="white" transform="translate(755.177 1624.64) rotate(-166.231)"/>
</clipPath>
</defs>
</svg>
