<svg width="880" height="1500" viewBox="0 0 880 1500" fill="none" xmlns="http://www.w3.org/2000/svg">
<g clip-path="url(#clip0_188_728)">
<path d="M309.377 787.749L301.695 806.73L524.97 860.065L528.432 838.34L309.377 787.749Z" fill="#DFEBEF"/>
<path d="M302.583 179.461C290.373 180.805 281.664 191.864 283.296 203.853L321.029 481.52C322.66 493.509 334.026 502.361 346.237 501.016C358.448 499.672 367.156 488.613 365.525 476.624L327.792 198.957C326.18 186.78 314.794 178.116 302.583 179.461Z" fill="#FFDFC4"/>
<path d="M325.821 192.266L348.487 158.905L341.148 150.68L326.064 156.095L330.163 132.153L274.293 108.383L266.53 185.844L283.538 203.499L325.821 192.266Z" fill="#FFDFC4"/>
<path d="M366.959 548.223C366.959 548.223 283.707 480.336 310.217 465.299C336.727 450.262 391.747 460.413 391.747 460.413L366.959 548.223Z" fill="#DFEBEF"/>
<path d="M741.639 802.567C731.277 805.826 719.041 801.453 714.391 792.947L607.534 598.478C602.884 589.972 607.534 580.569 618.098 577.332C628.46 574.072 640.696 578.446 645.346 586.951L752.203 781.421C756.67 789.716 752 799.307 741.639 802.567Z" fill="#FFDFC4"/>
<path d="M617.352 514.953C617.352 514.953 697.273 611.247 672.731 623.068C648.189 634.888 591.704 623.054 591.704 623.054L617.352 514.953Z" fill="#DFEBEF"/>
<path d="M715.753 803.573C715.753 803.573 720.437 869.427 726.616 849.14C732.998 828.874 734.86 824.694 734.86 824.694C734.86 824.694 765.154 882.273 766.98 874.469C768.604 866.643 753.376 835.654 753.376 835.654C753.376 835.654 779.383 875.241 780.252 870.763C781.992 861.806 763.122 830.423 763.122 830.423C763.122 830.423 798.049 874.786 793.277 861.505C788.707 848.245 777.386 827.015 777.386 827.015C777.386 827.015 799.912 852.698 800.147 846.436C800.296 839.022 748.812 778.577 748.812 778.577L717.512 794.428L715.753 803.573Z" fill="#FFDFC4"/>
<path d="M301.694 806.73L230.686 1065.38C227.758 1079.92 237.955 1094.17 253.565 1097.58L270.572 1101.33C286.384 1104.75 302.02 1095.97 305.555 1081.49C318.151 1030.65 365.403 891.552 398.809 898.981C436.812 907.48 404.042 1051.01 394.684 1102.2C391.978 1116.57 402.194 1130.63 417.582 1134.21L445.988 1140.52C462.185 1144.18 478.082 1134.85 481.068 1119.74L525.171 860.087" fill="#717982"/>
<path d="M304.773 1087.12C304.773 1087.12 291.464 1087.2 273.855 1075.39C256.246 1063.58 240.363 1030.99 240.363 1030.99L18.4902 1240.53C18.4902 1240.53 25.4243 1366.07 89.6804 1369.98C153.937 1373.89 98.4478 1272.81 98.4478 1272.81L304.773 1087.12Z" fill="black"/>
<path d="M393.854 1106.3C393.854 1106.3 415.991 1121.84 435.603 1120.15C455.234 1118.28 484.349 1097.81 484.349 1097.81L579.77 1389.54C579.77 1389.54 521.348 1495.99 465.943 1467.7C410.518 1439.6 499.26 1378.53 499.26 1378.53L393.854 1106.3Z" fill="black"/>
<path d="M484.967 166.83C475.389 164.459 465.809 166.088 461.846 170.803C428.847 209.141 294.24 375.931 414.72 410.129C484.508 429.881 522.885 440.707 543.765 446.588C556.705 450.086 568.724 446.625 569.721 438.922L600.663 207.749C601.563 200.988 593.501 193.828 582.141 190.882L484.967 166.83Z" fill="#804C29"/>
<path d="M693.894 218.419C700.678 220.106 705.676 225.22 706.107 230.982C709.616 278.42 719.484 480.863 633.63 464.133C583.87 454.552 556.621 448.933 541.782 445.992C532.772 444.063 527.033 436.202 529.63 428.862L608.257 209.523C610.554 203.104 618.468 199.77 626.244 201.756L693.894 218.419Z" fill="#804C29"/>
<path d="M461.833 330.072C461.833 330.072 426.342 277.265 440.176 250.186C454.011 223.108 477.047 249.798 477.047 249.798" fill="#FFDFC4"/>
<path d="M646.226 291.939C646.226 291.939 677.207 277.196 677.363 307.505C677.52 337.814 624.594 370.946 624.594 370.946" fill="#FFDFC4"/>
<path d="M675.529 213.953L627.179 369.7C623.249 382.039 614.011 392.279 601.577 397.791L551.877 419.46C530.458 428.761 504.539 422.143 490.885 403.708L458.896 360.616C450.817 349.644 447.924 335.994 451.285 323.213L491.954 168.538" fill="#FFDFC4"/>
<path d="M581.078 197.245L716.659 229.84C737.077 150.702 693.314 70.898 619.506 52.4246C545.294 33.9074 466.696 83.8815 445.633 163.331L581.078 197.245Z" fill="#070405"/>
<path d="M717.654 226.138C717.654 226.138 409.029 218.807 414.608 186.453C420.187 154.098 462.216 149.315 462.216 149.315L717.654 226.138Z" fill="#070405"/>
<path d="M493.096 445.863L504.323 396.402L548.192 409.536L532.195 459.624L493.096 445.863Z" fill="#FFDFC4"/>
<path d="M548.809 475.14L554.289 447.728L485.325 435.875L479.43 465.338L548.809 475.14Z" fill="#DFEBEF"/>
<path d="M413.266 816.149L405.875 814.396L399.092 812.709L319.194 793.766C308.2 791.242 301.856 779.314 305.12 767.475L388.615 461.026C388.615 461.026 463.832 459.838 462.764 456.294C461.696 452.749 467.353 419.64 479.488 432.957C491.439 446.064 496.517 464.332 496.517 464.332L528.469 471.984C528.469 471.984 542.951 458.502 558.576 451.812C573.999 445.1 563.746 477.139 561.229 479.724C558.713 482.309 617.719 515.373 617.719 515.373L545.401 824.557C542.542 836.44 531.31 844.177 520.336 841.465L450.622 824.959L444.629 823.547L438.029 822.07" fill="#D30B2D"/>
</g>
<defs>
<clipPath id="clip0_188_728">
<rect width="737.239" height="1427.77" fill="white" transform="matrix(0.994184 0.107693 -0.102326 0.994751 146.098 0)"/>
</clipPath>
</defs>
</svg>
