<svg width="311" height="90" viewBox="0 0 311 90" fill="none" xmlns="http://www.w3.org/2000/svg">
<path d="M42.2647 0.791016C48.1508 0.791016 53.1202 2.76685 57.0764 6.76792C61.0327 10.7196 63.0108 15.6592 63.0108 21.5373C63.0108 27.4154 61.0327 32.355 57.0764 36.3067C53.072 40.2584 48.1508 42.2836 42.2647 42.2836H27.1152V0.791016H42.2647V0.791016ZM42.2647 32.6514C45.449 32.6514 48.1025 31.6141 50.1289 29.5394C52.1553 27.4648 53.1685 24.7974 53.1685 21.4879C53.1685 18.1784 52.1553 15.4616 50.1289 13.4364C48.1025 11.4111 45.449 10.3738 42.2647 10.3738H36.9576V32.6514H42.2647V32.6514Z" fill="black"/>
<path d="M91.813 42.2836L82.2602 27.86H79.1724V42.2836H69.3301V0.791016H87.3743C91.6683 0.791016 95.0456 2.02591 97.5544 4.49571C100.063 6.96551 101.318 10.3244 101.318 14.6219C101.318 20.9939 98.6158 25.0938 93.2122 26.8721L103.875 42.2342H91.813V42.2836ZM91.3306 14.7701C91.3306 11.8557 89.6419 10.3738 86.3129 10.3738H79.1724V19.0181H86.3129C89.6419 19.0181 91.3306 17.5856 91.3306 14.7701Z" fill="black"/>
<path d="M138.131 42.2836L135.236 33.6887H120.087L117.192 42.2836H106.771L121.486 0.791016H133.885L148.6 42.2836H138.131ZM123.319 24.0565H132.004L127.661 11.1148L123.319 24.0565Z" fill="black"/>
<path d="M168.622 19.3138H191.153V42.2335H182.759V36.4542C181.842 38.3806 180.25 39.9613 177.982 41.1962C175.714 42.4311 173.061 43.0239 170.021 43.0239C164.377 43.0239 159.648 40.9986 155.789 36.9482C151.929 32.8977 149.999 27.8099 149.999 21.6354C149.999 15.4115 151.977 10.225 155.982 6.1251C159.938 2.02523 164.955 0 170.986 0C175.907 0 180.105 1.38309 183.675 4.09986C187.245 6.86603 189.61 10.4225 190.719 14.8682H180.201C179.381 13.1887 178.175 11.9044 176.583 10.9659C174.991 10.0274 173.109 9.58281 170.986 9.58281C167.609 9.58281 164.955 10.6695 162.929 12.8923C160.903 15.1152 159.938 18.0295 159.938 21.7342C159.938 25.1919 160.855 28.0569 162.736 30.3291C164.618 32.6013 167.271 33.688 170.745 33.688C173.013 33.688 175.039 33.1941 176.776 32.1568C178.513 31.1194 179.815 29.6376 180.636 27.7111H168.574V19.3138H168.622Z" fill="black"/>
<path d="M203.358 6.17449C207.411 2.07463 212.429 0 218.411 0C224.394 0 229.411 2.07463 233.512 6.17449C237.565 10.3237 239.64 15.4115 239.64 21.4872C239.64 27.5629 237.613 32.7001 233.512 36.8C229.46 40.9492 224.394 42.9745 218.411 42.9745C212.429 42.9745 207.411 40.8998 203.31 36.8C199.257 32.6507 197.183 27.5629 197.183 21.4872C197.231 15.4115 199.257 10.3237 203.358 6.17449ZM226.468 12.9417C224.346 10.7189 221.644 9.58281 218.411 9.58281C215.179 9.58281 212.477 10.7189 210.354 12.9417C208.231 15.1645 207.17 18.0295 207.17 21.4872C207.17 24.9449 208.231 27.8099 210.354 30.0327C212.477 32.2555 215.179 33.3916 218.411 33.3916C221.644 33.3916 224.346 32.2555 226.468 30.0327C228.591 27.8099 229.653 24.9449 229.653 21.4872C229.653 18.0295 228.591 15.1645 226.468 12.9417Z" fill="black"/>
<path d="M271.29 0.791016H281.132V42.2836H269.939L254.741 16.1038L255.561 24.8962V42.2836H245.719V0.791016H256.912L272.061 26.9215L271.29 18.129V0.791016V0.791016Z" fill="black"/>
<path d="M116.373 89.2094L106.82 74.7858H103.732V89.2094H93.8896V47.7168H111.934C116.228 47.7168 119.605 48.9517 122.114 51.4215C124.623 53.8913 125.829 57.2996 125.829 61.5971C125.829 67.9691 123.127 72.069 117.724 73.8472L128.386 89.2094H116.373ZM115.938 61.6958C115.938 58.7815 114.25 57.2996 110.921 57.2996H103.78V65.9439H110.921C114.25 65.9439 115.938 64.5114 115.938 61.6958Z" fill="black"/>
<path d="M136.587 53.1003C140.64 48.951 145.706 46.9258 151.689 46.9258C157.671 46.9258 162.689 49.0004 166.79 53.1003C170.843 57.2495 172.917 62.3373 172.917 68.413C172.917 74.4887 170.891 79.6259 166.79 83.7257C162.737 87.875 157.671 89.9002 151.689 89.9002C145.706 89.9002 140.688 87.8256 136.587 83.7257C132.535 79.5765 130.46 74.4887 130.46 68.413C130.46 62.3373 132.486 57.2495 136.587 53.1003ZM159.698 59.8675C157.575 57.6447 154.873 56.5086 151.64 56.5086C148.408 56.5086 145.706 57.6447 143.583 59.8675C141.46 62.0903 140.399 64.9553 140.399 68.413C140.399 71.8707 141.46 74.7357 143.583 76.9585C145.706 79.1813 148.408 80.3174 151.64 80.3174C154.873 80.3174 157.575 79.1813 159.698 76.9585C161.82 74.7357 162.882 71.8707 162.882 68.413C162.882 64.9553 161.82 62.0903 159.698 59.8675Z" fill="black"/>
<path d="M203.361 47.7168H213.396L213.348 72.2666C213.348 77.9471 211.756 82.3433 208.619 85.4059C205.483 88.4684 201.382 89.9997 196.317 89.9997C191.251 89.9997 187.15 88.4684 184.014 85.4059C180.878 82.3433 179.286 77.9471 179.286 72.2666L179.237 47.7168H189.273V71.6738C189.273 77.5025 191.637 80.3675 196.317 80.3675C200.997 80.3675 203.361 77.4531 203.361 71.6738V47.7168V47.7168Z" fill="black"/>
<path d="M250.496 47.7168V57.2996H239.447V89.2094H229.605V57.2996H218.557V47.7168H250.496Z" fill="black"/>
<path d="M283.884 57.3002H265.839V63.4747H282.292V73.0575H265.839V79.5778H283.884V89.1606H255.997V47.668H283.884V57.3002Z" fill="black"/>
<path d="M30.3456 89.9503L22.9639 63.3259L44.1442 76.6628L54.8067 43.4688L69.8114 76.2182L79.1713 67.0306V89.9503H30.3456Z" fill="#010101"/>
<path d="M27.1598 32.6504H5.49707V42.2332H27.1598V32.6504Z" fill="black"/>
<path d="M5.50012 32.6504L0 34.2805L5.50012 37.4418L0 39.0719L5.50012 42.2826V32.6504Z" fill="black"/>
<path d="M305.545 79.5762H283.883V89.159H305.545V79.5762Z" fill="black"/>
<path d="M305.549 89.2084L311.001 87.5783L305.549 84.3676L311.001 82.7869L305.549 79.5762V89.2084Z" fill="black"/>
</svg>
