<svg width="5068" height="2167" viewBox="0 0 5068 2167" fill="none" xmlns="http://www.w3.org/2000/svg">
<g clip-path="url(#clip0_188_750)">
<path d="M4211.49 1508.34C4211.49 1508.34 4147.86 1823.69 4254.33 1838.92C4360.79 1854.13 4323.16 1905.13 4323.16 1905.13L4293.83 1937.43L4336.53 1971.89L4458.69 1939.49L4433.04 1912.91L4476.77 1893.45L4443.85 1868.13L4484.48 1832.7L4391.06 1840.63C4391.06 1840.63 4254.52 1699.59 4313.02 1647.86C4371.53 1596.13 4346.14 1533.86 4346.14 1533.86" fill="#684B98"/>
<path d="M4087.72 1610.42C4087.72 1610.42 4038.93 1904.37 4134 1921.08C4229.08 1937.78 4196.86 1984.68 4196.86 1984.68L4171.58 2014.26L4210.41 2047.53L4318.26 2019.99L4294.78 1994.51L4333.2 1977.29L4303.29 1952.81L4338.55 1920.56L4255.66 1925.84C4255.66 1925.84 4130.72 1790.58 4181.47 1743.47C4232.23 1696.36 4208.1 1637.43 4208.1 1637.43" fill="#684B98"/>
<path d="M336.624 545.691C347.921 525.041 320.914 569.987 333.861 550.988C338.576 544.066 343.018 536.811 347.827 530.005C356.899 517.172 366.489 505.043 376.513 493.579C379.616 490.035 383.039 486.76 386.019 483.062C386.801 482.09 366.093 502.74 375.9 493.912C381.087 489.242 386.056 484.086 391.243 479.403C403.549 468.298 416.261 458.062 429.302 448.633C434.97 444.539 440.703 440.598 446.493 436.798C450.426 434.227 471.021 422.174 453.915 431.668C436.837 441.148 460.158 428.469 464.948 426.064C472.162 422.456 479.433 419.065 486.75 415.867C514.456 403.789 542.529 396.163 571.064 388.896C583.314 385.774 557.287 391.186 558.249 391.123C562.662 390.841 567.208 389.69 571.621 389.101C578.326 388.205 585.04 387.476 591.754 386.913C607.436 385.608 623.175 385.199 638.885 385.774C652.351 386.273 665.723 387.77 679.142 389.357C699.719 391.801 655.973 383.919 676.285 388.781C685.083 390.892 693.862 392.952 702.585 395.549C717.079 399.861 731.13 405.708 745.332 411.453C764.107 419.053 742.456 410.826 740.155 407.627C742.173 410.429 747.614 412.451 750.226 414.306C753.498 416.634 756.619 419.296 759.882 421.637C773.782 431.578 756.478 421.765 754.979 415.278C755.441 417.274 761.448 424.106 762.806 425.386C771.34 433.433 757.459 415.905 756.751 413.142C758.93 421.688 765.371 432.973 768.86 441.097C774.621 454.531 764.173 426.819 764.192 426.345C764.088 429.813 766.54 435.979 767.285 439.37C769.501 449.529 771.057 459.802 772.717 470.14C776.913 496.33 771.585 464.114 772.038 460.301C771.519 464.651 772.783 470.997 773.009 475.437C773.528 485.532 773.763 495.639 773.726 505.76C773.678 515.88 773.358 525.987 772.754 536.082C772.405 541.916 771.019 564.601 772.585 541.277C774.131 518.247 772.16 541.366 771.396 546.343C768.332 566.43 764.192 586.185 759.024 605.453C757.647 610.596 752.121 632.193 757.496 611.53C762.466 592.428 758.289 608.6 756.742 612.554C752.48 623.416 748.434 634.355 743.795 644.936C739.768 654.097 735.515 663.053 731.036 671.817C728.707 676.359 718.664 694.092 729.31 675.796C739.296 658.626 731.668 671.715 729.527 675.093C719.795 690.458 709.912 705.479 699.266 719.693C688.44 734.138 677.115 747.879 665.421 761.006C662.687 764.077 659.867 767.007 657.151 770.103C647.872 780.684 665.45 760.853 665.469 761.454C665.638 765.753 645.741 780.953 642.073 784.407C534.268 886.045 411.187 951.821 299.026 1043.44C183.452 1137.85 65.7741 1267.98 28.5632 1452.03C-8.2423 1634.07 39.2946 1823.27 151.503 1933.96C214.91 1996.52 297.942 2018.2 374.816 2020.93C449.228 2023.58 525.819 2008.04 597.318 1980.43C730.206 1929.1 851.844 1834.68 966.004 1731.15C1075.02 1632.29 1180.42 1526.21 1298.83 1448.18C1312.98 1438.85 1328.7 1425.59 1343.89 1420.18C1343.95 1420.16 1323.29 1431.4 1334.99 1425.39C1338.55 1423.56 1342.06 1421.53 1345.6 1419.65C1353.87 1415.26 1362.19 1411.03 1370.54 1406.99C1402.77 1391.38 1435.71 1378.36 1469.2 1368.8C1476.66 1366.68 1484.15 1364.69 1491.65 1362.9C1495.41 1362.01 1499.22 1361.37 1502.95 1360.36C1515.38 1357 1492.44 1362.05 1492.43 1362.05C1510.33 1361.11 1528.2 1356.9 1546.16 1355.96C1563.1 1355.06 1580.06 1355.15 1596.99 1356.24C1604.28 1356.71 1611.55 1357.36 1618.82 1358.27C1622.23 1358.69 1626.14 1359.97 1629.56 1359.76C1624.37 1360.07 1606.3 1354.65 1621.51 1358.44C1636.76 1362.22 1651.9 1366.34 1666.83 1372.15C1673.58 1374.78 1680.26 1377.67 1686.89 1380.84C1689.92 1382.3 1693.51 1385.05 1696.65 1385.75C1687.86 1383.78 1676.13 1373.04 1692.06 1383.67C1698.06 1387.67 1703.94 1391.97 1709.69 1396.63C1713.63 1399.81 1731.26 1417.6 1717.42 1402.21C1702.79 1385.94 1722.94 1409.33 1725.63 1412.98C1727.83 1415.93 1729.81 1419.57 1732.13 1422.31C1741 1432.8 1721.5 1399.03 1727.83 1414.36C1731.13 1422.36 1734.73 1431.1 1738.46 1438.72C1744.64 1451.41 1733.61 1425.57 1734.19 1423.98C1733.8 1425.04 1738.55 1441.78 1738.47 1441.41C1740.25 1449.78 1740.46 1460.33 1742.97 1468.19C1742.98 1468.21 1741.08 1434.96 1741.12 1450.99C1741.13 1457.09 1741.73 1463.27 1741.82 1469.4C1741.99 1480.26 1741.49 1491 1741.14 1501.85C1740.23 1529.68 1745.7 1471.55 1741.59 1498.92C1738.17 1521.56 1734.19 1543.7 1728.92 1565.71C1707.72 1654.33 1672.33 1738.22 1662.21 1831.26C1654.87 1898.59 1657.37 1959.89 1679.19 2022.3C1700.92 2084.44 1745.67 2126.98 1793.17 2146.41C1833.62 2162.96 1879.52 2162.97 1921.56 2165.76C1962.97 2168.51 2003.53 2166.74 2044.6 2159.25C2120.27 2145.45 2190.58 2110.1 2258.26 2062.38C2315.16 2022.26 2368.39 1973.52 2422.96 1927.99C2448.88 1906.35 2475.09 1885.42 2502.48 1867.34C2508.84 1863.15 2515.24 1859.08 2521.68 1855.15C2545.16 1840.83 2506.58 1862.64 2524.85 1853.36C2539.48 1845.93 2554.1 1838.6 2569.05 1832.35C2583.94 1826.13 2599.02 1820.68 2614.24 1816.21C2621.22 1814.16 2628.25 1812.51 2635.25 1810.67C2638.72 1809.76 2651.33 1807.7 2634.54 1810.47C2616.79 1813.4 2633.61 1810.77 2637.29 1810.28C2652.25 1808.3 2667.3 1807.38 2682.33 1807.82C2689.16 1808.03 2695.95 1808.76 2702.76 1809.28C2711.04 1809.91 2719.96 1816.14 2693.43 1807.13C2697.73 1808.59 2702.28 1809.1 2706.64 1810.29C2719.77 1813.89 2732.39 1819.16 2745.05 1824.98C2763.26 1833.36 2724.13 1810.84 2745.94 1826.33C2752.97 1831.32 2759.82 1836.8 2766.43 1842.75C2769.26 1845.3 2771.95 1848.19 2774.81 1850.69C2784.45 1859.08 2765.9 1841.56 2765.81 1841.13C2767.12 1847.53 2779.57 1856.97 2783.65 1861.96C2794.42 1875.14 2804.83 1888.85 2815.42 1902.3C2842.43 1936.61 2871.45 1970.91 2903.96 1995.2C2945.08 2025.9 2987.39 2040.77 3033.7 2047.14C3111.61 2057.85 3190.74 2020.71 3259.16 1973.56C3288.06 1953.64 3315.59 1930.24 3342.16 1905.07C3354.98 1892.92 3367.57 1880.3 3380.02 1867.42C3391.34 1855.7 3402.57 1843.84 3413.82 1832.02C3423.57 1821.77 3406.85 1839.35 3406.68 1839.5C3410.95 1835.7 3414.91 1830.93 3418.98 1826.73C3474.12 1769.83 3531.14 1715.63 3593.18 1673.33C3600.34 1668.44 3607.56 1663.72 3614.85 1659.17C3616.13 1658.36 3625.56 1653.97 3625.87 1652.43C3625.77 1652.98 3606.56 1662.76 3617.83 1657.07C3634.57 1648.61 3651.15 1640.07 3668.28 1633.13C3684.38 1626.61 3700.67 1621.02 3717.14 1616.47C3724.77 1614.36 3732.45 1612.62 3740.13 1610.83C3743.18 1610.11 3756.69 1607.17 3740.83 1610.6C3724.26 1614.18 3742.05 1610.79 3745.46 1610.38C3762.22 1608.37 3779.07 1607.49 3795.9 1607.96C3803.63 1608.18 3811.35 1608.67 3819.07 1609.45C3823.4 1609.88 3830.49 1612.29 3834.42 1611.39C3828.74 1612.69 3812.57 1606.38 3827.8 1610.43C3842.72 1614.41 3857.45 1618.71 3872.02 1624.71C3880.01 1628 3887.91 1631.7 3895.76 1635.61C3899.14 1637.3 3902.47 1639.09 3905.85 1640.79C3919.56 1647.69 3904.53 1640.21 3899.42 1636.8C3961.56 1678.26 4026.71 1723.06 4093.34 1748.95C4173.76 1780.19 4255.3 1772.6 4330.98 1724.92C4393.92 1685.27 4440.18 1610.06 4479.12 1534.69C4494.24 1505.43 4508.07 1475.01 4522.72 1445.3C4526.11 1438.41 4530.12 1431.81 4533.25 1424.74C4517.69 1459.88 4528.19 1433.96 4534.57 1424.38C4544.5 1409.47 4555.28 1396 4566.42 1382.78C4580.51 1366.05 4548.04 1399.92 4568.86 1381.02C4574.58 1375.82 4580.44 1370.92 4586.44 1366.34C4590.46 1363.29 4611.15 1351.03 4594.57 1359.6C4576.85 1368.76 4602.28 1356.35 4606.53 1354.71C4612.72 1352.33 4619.88 1351.82 4625.84 1348.8C4625.62 1348.92 4601.39 1350.76 4612.63 1351.73C4615.81 1352 4619.2 1351.31 4622.41 1351.34C4626.45 1351.37 4631.62 1352.91 4635.45 1352.28C4634.67 1352.41 4611.99 1345.13 4622.25 1350.56C4629.52 1354.39 4637.43 1356.42 4644.78 1360.33C4669.91 1373.7 4707.83 1362.9 4730.16 1345.18C4753.14 1326.94 4775.06 1291.18 4781.08 1255.34C4795.58 1168.93 4761.61 1101.22 4703.69 1070.41C4627.04 1029.64 4537.36 1055.76 4468.65 1111.42C4404.65 1163.27 4358.35 1237.01 4318.22 1320.78C4311.01 1335.83 4303.84 1350.9 4296.45 1365.77C4293.02 1372.68 4289.54 1379.55 4285.99 1386.35C4283.63 1390.88 4281.12 1395.3 4278.81 1399.87C4271.06 1415.22 4293.77 1375.04 4284.96 1389.25C4276.43 1402.97 4268.08 1416.69 4258.66 1429.34C4254.35 1435.14 4249.79 1440.51 4245.32 1446.08C4232.56 1461.97 4265.75 1427.18 4246.03 1444.97C4240.03 1450.38 4233.77 1454.91 4227.56 1459.79C4211.16 1472.69 4249.41 1450.35 4230.95 1458.27C4224.7 1460.96 4218.52 1463.8 4212.14 1465.92C4211.94 1465.99 4199.24 1468.47 4198.54 1469.75C4200.51 1466.15 4224.05 1467.16 4207.13 1467.71C4200.26 1467.94 4193.43 1468.46 4186.54 1468.15C4183.16 1467.99 4179.74 1467.38 4176.35 1467.33C4161.66 1467.11 4199.98 1473.32 4185.57 1469.33C4170.96 1465.28 4156.59 1461.11 4142.35 1454.97C4134.59 1451.63 4126.93 1447.93 4119.32 1444.02C4115.43 1442.02 4093.5 1430 4109.63 1438.99C4126.46 1448.37 4099.99 1432.85 4096.73 1430.83C4089.09 1426.06 4081.47 1421.17 4073.86 1416.28C4037.91 1393.21 4001.85 1370.49 3964.78 1350.88C3895.95 1314.44 3819.01 1300.93 3745.48 1309.74C3589.89 1328.4 3452.9 1420.07 3328.87 1544.98C3315.39 1558.55 3302.04 1572.38 3288.74 1586.29C3277.18 1598.38 3265.71 1610.63 3254.11 1622.63C3253.79 1622.96 3272.51 1603.84 3262.58 1613.62C3258.71 1617.42 3254.94 1621.4 3251.09 1625.25C3224.2 1652.13 3196.39 1677.46 3167.2 1699.57C3153.02 1710.32 3138.46 1719.74 3123.78 1729.13C3112.68 1736.23 3133.12 1723.65 3133.19 1723.65C3130.21 1723.86 3125.72 1727.5 3122.87 1728.88C3114.89 1732.77 3106.81 1736.34 3098.65 1739.44C3090.59 1742.48 3082.46 1745.11 3074.24 1747.24C3070.86 1748.13 3067.04 1748.38 3063.75 1749.73C3063.8 1749.7 3087.67 1747.24 3075.69 1747.1C3067.55 1747 3059.38 1748.4 3051.2 1748.1C3047.74 1747.97 3044.16 1747.24 3040.72 1747.36C3026.91 1747.82 3062.76 1753.81 3049.29 1749.15C3042.4 1746.77 3035.4 1745.26 3028.55 1742.54C3023.92 1740.69 3019.44 1738.24 3014.83 1736.33C3003.35 1731.6 3024.73 1741.61 3025.02 1742.07C3021.5 1736.53 3011.78 1732.61 3007.02 1728.64C3004.14 1726.25 3001.33 1723.72 2998.53 1721.14C2984.2 1707.98 2995.98 1716.47 3002.15 1725.69C2983.24 1697.46 2958.96 1671.76 2937.89 1646.31C2877.75 1573.68 2810.91 1527.82 2730.98 1513.25C2588.19 1487.21 2444.1 1559.08 2323.45 1658.17C2267.62 1704.01 2213.62 1754.04 2156.05 1795.88C2143.28 1805.15 2130.35 1814.03 2117.22 1822.32C2113.94 1824.39 2110.63 1826.39 2107.35 1828.45C2089.86 1839.39 2111.43 1825.53 2113.82 1824.84C2105.89 1827.14 2097.74 1833.34 2090.04 1837.01C2075.07 1844.12 2059.87 1850.33 2044.45 1855.39C2037.25 1857.76 2029.99 1859.9 2022.7 1861.77C2019.02 1862.71 2015.3 1863.38 2011.63 1864.38C1998.59 1867.92 2036.4 1861.64 2013.66 1863.8C1975.54 1867.41 1937.77 1866.65 1899.63 1863.42C1889.54 1862.56 1879.44 1861.66 1869.36 1860.64C1867.31 1860.44 1859.09 1857.98 1857.45 1859.36C1858.21 1858.72 1879.24 1865.32 1867.23 1861.25C1863.01 1859.82 1839.52 1850.62 1854.78 1858.54C1867.88 1865.34 1858.88 1860.24 1855.74 1857.67C1869.05 1872.79 1872.78 1876.35 1866.89 1868.35C1863 1862.67 1864.12 1864.8 1870.26 1874.7C1880.58 1891.79 1875.11 1882.58 1872.9 1877.32C1871.81 1874.71 1883.71 1910.72 1878.99 1895.89C1878.63 1894.76 1876.39 1885.82 1876.92 1884.95C1878.13 1882.91 1877.96 1928.09 1878.9 1902.16C1879.07 1897.51 1877.01 1882.47 1879.3 1878.95C1881.03 1876.3 1873.6 1915.63 1877.2 1899.82C1878.4 1894.57 1878.83 1888.6 1879.76 1883.23C1888.2 1834.05 1902.4 1787.12 1916.29 1740.41C1943.47 1649.01 1969.03 1551.44 1962.77 1451.03C1954.89 1324.57 1912.3 1221.77 1835.37 1149.12C1772.52 1089.77 1693.78 1066.98 1618.87 1057.66C1544.66 1048.42 1467.79 1060.47 1395.48 1083.41C1257.98 1127.03 1130.12 1221.01 1012.8 1325.22C902.012 1423.61 796.49 1532.71 678.256 1614.87C664.941 1624.12 651.493 1633.04 637.905 1641.56C630.134 1646.44 621.487 1650.37 614.009 1656.05C613.99 1656.06 634.783 1644.68 623.241 1650.69C618.592 1653.1 613.99 1655.74 609.35 1658.18C577.929 1674.71 545.792 1688.82 513.06 1699.75C498.406 1704.64 483.638 1708.91 468.777 1712.49C465.222 1713.35 435.423 1719.66 453.434 1716.03C469.474 1712.79 456.206 1715.45 452.981 1715.83C447.88 1716.45 442.787 1717.22 437.676 1717.78C420.787 1719.66 403.841 1720.62 386.896 1720.55C378.861 1720.53 370.836 1720.26 362.811 1719.7C357.464 1719.33 352.136 1718.84 346.799 1718.2C343.574 1717.82 325.157 1715.13 341.688 1717.78C358.228 1720.43 333.314 1715.22 329.089 1713.95C320.169 1711.28 311.323 1708.13 302.629 1704.33C298.96 1702.73 295.339 1700.6 291.643 1699.14C279.61 1694.39 301.271 1704.73 301.657 1705.1C296.16 1699.74 288.776 1696.53 282.854 1691.84C277.554 1687.65 271.443 1679.65 265.691 1676.75C265.333 1676.57 284.165 1698.68 276.894 1688.38C274.989 1685.68 272.575 1683.4 270.538 1680.88C266.455 1675.83 262.513 1670.52 258.76 1665C256.723 1662.01 254.064 1656.48 251.574 1653.83C253.583 1655.97 266.757 1683.48 259.109 1666.72C253.055 1653.44 248.095 1638.88 241.946 1625.83C235.572 1612.3 250.169 1647.32 247.953 1645.15C246.84 1644.04 245.662 1636.82 245.266 1634.97C243.493 1626.91 241.531 1618.97 240.051 1610.78C238.919 1604.51 235.242 1572.86 238.052 1602.41C240.768 1630.93 238.391 1603.91 238.089 1597.19C237.316 1580.01 238.75 1563.33 238.844 1546.25C238.938 1529.82 237.458 1571.53 236.59 1568.03C236.062 1565.9 237.637 1559.4 238.005 1557.17C239.381 1548.77 240.617 1540.35 242.305 1532.03C243.747 1524.89 245.369 1517.8 247.161 1510.82C248.048 1507.35 249.255 1503.88 250.009 1500.36C253.225 1485.29 236.93 1536.07 246.454 1512.33C251.961 1498.6 257.138 1484.93 263.485 1471.85C266.266 1466.1 281.213 1438.59 270.585 1457.34C259.873 1476.22 276.14 1448.91 279.27 1444.13C289.229 1428.96 299.8 1414.55 310.795 1400.77C315.953 1394.31 321.206 1387.99 326.553 1381.81C329.24 1378.69 331.947 1375.61 334.681 1372.55C336.115 1370.95 354.616 1350.93 340.264 1366.28C326.996 1380.47 345.979 1360.89 349.326 1357.64C355.258 1351.9 361.255 1346.28 367.3 1340.76C381.596 1327.69 396.175 1315.21 410.942 1303.14C524.131 1210.69 648.485 1144.53 756.959 1041.28C820.291 980.992 875.287 913.847 920.212 828.074C967.862 737.081 993.974 622.226 995.407 510.903C996.822 400.59 973.756 273.517 909 199.694C842.367 123.721 757.232 98.4396 672.56 87.8587C543.34 71.7123 403.304 116.096 292.737 208.33C233.761 257.524 186.403 318.975 145.373 393.976C129.323 423.313 127.39 476.23 134.208 509.815C141.29 544.693 161.159 582.474 185.13 599.657C242.993 641.175 299.611 613.347 336.624 545.691Z" fill="#684B98"/>
<path d="M4682.16 985.199L5068.15 1202.14L5053.59 1364.81L4601.5 1372.85C4560.55 1373.58 4532.18 1331.16 4536.74 1275.96L4553.65 1070.73" fill="#684B98"/>
<path d="M4603.47 1109.25C4603.47 1109.25 4526.91 1124.95 4520.51 1032.41C4514.11 939.858 4628.23 868.21 4579.83 826.731C4529.86 783.895 4475.74 757.82 4475.74 757.82L4602.69 797.214C4610.93 803.47 4613.21 803.061 4618.54 813.808C4627.5 831.912 4623.28 877.153 4592.76 943.338C4544.59 1047.84 4635.65 1063.02 4635.65 1063.02L4603.47 1109.25Z" fill="#55AD21"/>
<path d="M373.92 466.008L299.131 374.541C255.498 321.176 188.233 325.897 148.9 385.109L0 609.202L153.795 797.304L373.92 466.008Z" fill="#684B98"/>
<path d="M90.9902 715.536L289.172 411.223L417.308 576.218L306.174 491.622L367.97 651.986L266.804 549.593L324.101 684.663L229.565 614.217L272.226 732.091L204.198 655.645L251.725 780.927L187.535 701.052L225.623 808.614L163.526 745.359L197.191 852.281L90.9902 715.536Z" fill="#55AD21"/>
<path d="M696.673 99.2967L722.869 0L719.984 110.645L814.209 2.77637L766.615 133.342L866.178 104.939L801.45 163.332L696.673 99.2967Z" fill="#55AD21"/>
<path d="M2463.58 1576.68L2436.69 1477.72L2484.27 1566.34L2499.12 1404.75L2525.67 1545.69L2579.66 1441.65L2562.43 1540.42L2463.58 1576.68Z" fill="#55AD21"/>
<path d="M1664.57 1110.74L1674.21 1000.11L1682.82 1113.68L1741.65 969.246L1719.31 1119.57L1789.79 1053.97L1747.85 1137.22L1664.57 1110.74Z" fill="#55AD21"/>
</g>
<defs>
<clipPath id="clip0_188_750">
<rect width="5068" height="2167" fill="white"/>
</clipPath>
</defs>
</svg>
