<svg width="5349" height="3122" viewBox="0 0 5349 3122" fill="none" xmlns="http://www.w3.org/2000/svg">
<g clip-path="url(#clip0_188_711)">
<path d="M1411.32 839.058C1407.93 824.605 1405.17 810.119 1403.04 795.413C1404.54 806.68 1406.05 817.93 1407.54 829.197C1402.02 787.111 1402.13 744.94 1407.32 702.821C1405.83 714.088 1404.32 725.338 1402.82 736.605C1409.14 690.13 1421.42 645.113 1439.22 601.774C1434.98 611.889 1430.75 622.003 1426.51 632.135C1444.68 589.304 1467.81 549.302 1495.77 512.214C1489.2 520.787 1482.63 529.36 1476.06 537.933C1508.22 496.203 1545.46 459.251 1586.81 426.822C1578.3 433.447 1569.8 440.072 1561.3 446.696C1609.56 409.575 1662.21 379.298 1718.12 355.493C1708.08 359.763 1698.05 364.032 1688.01 368.302C1748.24 343.243 1811.05 326.216 1875.59 317.219C1864.41 318.727 1853.26 320.252 1842.08 321.76C1907.83 313.17 1974.03 313.001 2039.8 321.574C2028.62 320.066 2017.47 318.541 2006.29 317.033C2067.5 325.555 2127.12 341.549 2184.18 365.523C2174.15 361.254 2164.12 356.984 2154.07 352.714C2204.26 374.367 2251.29 401.798 2294.64 435.277C2286.13 428.652 2277.63 422.027 2269.13 415.403C2311.77 448.95 2349.95 487.427 2383.32 530.36C2376.75 521.787 2370.18 513.214 2363.61 504.641C2396.51 547.743 2423.98 594.437 2445.35 644.385C2441.12 634.27 2436.88 624.155 2432.65 614.023C2452.76 662.259 2466.77 712.478 2473.93 764.323C2472.44 753.056 2470.92 741.806 2469.43 730.539C2475.49 778.08 2475.43 825.758 2469.38 873.316C2470.87 862.049 2472.39 850.799 2473.88 839.532C2467.13 888.734 2454.24 936.53 2435.52 982.478C2439.76 972.364 2443.99 962.249 2448.22 952.117C2429.1 997.744 2404.61 1040.51 2374.66 1079.8C2381.23 1071.22 2387.8 1062.65 2394.37 1054.08C2367.62 1088.4 2337.25 1119.22 2303.07 1146.04C2311.57 1139.42 2320.07 1132.8 2328.58 1126.17C2292.97 1153.45 2254.19 1175.24 2213.13 1192.98C2223.16 1188.71 2233.19 1184.44 2243.24 1180.17C2159.44 1215.36 2070.24 1232.91 1981.59 1250.67C1886.52 1269.69 1794.73 1291.68 1705.51 1330.59C1544.25 1400.9 1392.92 1539.91 1349.79 1716.93C1324.52 1820.66 1337.95 1922.92 1381.77 2019.09C1420.38 2103.8 1489.94 2174.12 1566.51 2224.69C1737.14 2337.38 1950.64 2326.26 2128.28 2237.41C2218.69 2192.19 2301.26 2123.51 2363.88 2043.83C2436.98 1950.81 2488.05 1843.58 2559.35 1749.53C2552.79 1758.1 2546.22 1766.68 2539.65 1775.25C2566.8 1740.09 2597.01 1707.72 2631.91 1680.25C2623.41 1686.88 2614.9 1693.5 2606.4 1700.12C2628.53 1683.27 2651.92 1668.87 2677.27 1657.48C2667.24 1661.75 2657.21 1666.02 2647.16 1670.29C2668 1661.43 2689.39 1654.74 2711.75 1651.21C2700.58 1652.72 2689.42 1654.24 2678.25 1655.75C2700.24 1652.79 2722.1 1652.89 2744.1 1655.84C2732.92 1654.33 2721.77 1652.8 2710.59 1651.3C2730.74 1654.45 2750.08 1659.85 2768.86 1667.81C2758.83 1663.55 2748.8 1659.28 2738.75 1655.01C2753.94 1661.87 2768.09 1670.14 2781.38 1680.23C2772.88 1673.61 2764.38 1666.98 2755.87 1660.36C2767.42 1669.63 2777.68 1679.88 2786.81 1691.57C2780.24 1683 2773.67 1674.42 2767.1 1665.85C2774.96 1676.57 2781.45 1687.82 2786.74 1700.07C2782.51 1689.96 2778.27 1679.84 2774.04 1669.71C2779.72 1684.15 2783.31 1698.7 2785.6 1714.03C2784.1 1702.77 2782.59 1691.52 2781.09 1680.25C2784.29 1707.87 2782.77 1735.2 2779.26 1762.71C2780.76 1751.44 2782.27 1740.19 2783.77 1728.93C2775.8 1785.57 2763.33 1842 2741.54 1894.97C2745.78 1884.85 2750.01 1874.74 2754.24 1864.61C2742.6 1891.83 2728.52 1917.42 2710.71 1941.05C2717.28 1932.48 2723.85 1923.91 2730.42 1915.33C2716.71 1932.77 2701.47 1948.2 2684.2 1962.03C2692.7 1955.4 2701.2 1948.78 2709.7 1942.15C2665.76 1975.6 2614.47 1997.15 2567.54 2025.8C2517.42 2056.41 2470.12 2092.2 2425.39 2130.3C2342.71 2200.75 2271.55 2286.45 2213.78 2378.6C2156.08 2470.67 2111.59 2573.87 2084.66 2679.35C2078.44 2703.66 2073.08 2728.28 2069.06 2753.07C2063.6 2786.7 2057.61 2822.13 2060.51 2856.42C2067.85 2943.12 2106.95 3025.8 2189.22 3064.02C2246.35 3090.55 2308.36 3102.33 2370.28 3111.61C2444.7 3122.76 2513.15 3126.88 2587.68 3114.31C2659.06 3102.28 2723.87 3064.88 2776.74 3016.09C2824.53 2971.99 2863.41 2916.7 2902.69 2865.11C3045.24 2677.94 3158.07 2472.24 3247.41 2254.44C3337.15 2035.68 3392.66 1807.54 3423.19 1573.17C3426.89 1544.76 3430.37 1516.31 3434.13 1487.92C3432.64 1499.18 3431.12 1510.43 3429.63 1521.7C3440.95 1437.34 3455.34 1352.88 3487.97 1273.89C3483.73 1284.01 3479.5 1294.12 3475.26 1304.26C3491.12 1267.1 3510.85 1232.28 3535.11 1200.06C3528.54 1208.63 3521.97 1217.2 3515.4 1225.78C3543.03 1190.04 3575.03 1158.6 3610.37 1130.66C3601.87 1137.28 3593.37 1143.91 3584.86 1150.53C3632.48 1113.65 3684.82 1083.39 3740.12 1059.81C3730.09 1064.08 3720.06 1068.34 3710.01 1072.61C3764.68 1049.83 3821.86 1034.41 3880.48 1026.45C3869.31 1027.95 3858.15 1029.48 3846.98 1030.99C3899.99 1024.23 3953.37 1023.67 4006.4 1030.51C3995.23 1029 3984.07 1027.48 3972.9 1025.97C4015.79 1031.92 4057.61 1042.68 4097.7 1059.25C4087.67 1054.98 4077.64 1050.71 4067.59 1046.44C4100.54 1060.52 4131.46 1078.27 4159.94 1100.16C4151.44 1093.54 4142.93 1086.91 4134.43 1080.29C4159.22 1099.88 4181.31 1122.1 4200.83 1147.03C4194.27 1138.45 4187.7 1129.88 4181.13 1121.31C4202.18 1149.09 4219.3 1179.15 4233.03 1211.24C4228.79 1201.13 4224.56 1191.01 4220.33 1180.88C4236.79 1220.98 4247.46 1262.76 4253.28 1305.75C4251.78 1294.48 4250.27 1283.23 4248.77 1271.96C4254.95 1321.98 4254.38 1372.11 4248.02 1422.09C4249.51 1410.83 4251.02 1399.58 4252.52 1388.31C4242.3 1462.23 4220.41 1533.36 4191.86 1602.06C4196.1 1591.94 4200.33 1581.83 4204.56 1571.7C4169.94 1653.63 4129.07 1735.96 4075.51 1807.14C4082.08 1798.56 4088.65 1789.99 4095.22 1781.42C4074.03 1808.95 4050.57 1834.23 4023.35 1855.78C4031.85 1849.15 4040.36 1842.53 4048.86 1835.9C4030.7 1849.75 4011.51 1861.44 3990.72 1870.79C4000.75 1866.52 4010.78 1862.25 4020.83 1857.98C4003.79 1865.18 3986.74 1870.32 3968.41 1872.84C3979.58 1871.33 3990.74 1869.81 4001.91 1868.3C3984.51 1870.25 3967.32 1869.98 3949.96 1867.74C3961.13 1869.25 3972.29 1870.77 3983.46 1872.28C3964.63 1869.42 3946.57 1864.35 3929.01 1856.91C3939.04 1861.18 3949.07 1865.45 3959.12 1869.72C3945.02 1863.35 3931.86 1855.71 3919.48 1846.37C3927.98 1853 3936.48 1859.62 3944.99 1866.25C3934.45 1857.85 3925.03 1848.56 3916.69 1837.94C3923.26 1846.51 3929.83 1855.08 3936.4 1863.66C3929.41 1854.15 3923.7 1844.21 3919.13 1833.31C3923.36 1843.43 3927.6 1853.54 3931.83 1863.67C3928.12 1853.81 3925.63 1844 3924.19 1833.55C3925.68 1844.82 3927.19 1856.07 3928.69 1867.33C3927.58 1856.24 3927.76 1845.46 3929.09 1834.38C3927.6 1845.65 3926.08 1856.9 3924.59 1868.16C3926.27 1857.46 3928.99 1847.39 3932.91 1837.29C3928.67 1847.41 3924.44 1857.52 3920.2 1867.66C3924.99 1856.49 3930.94 1846.26 3938.1 1836.46C3931.53 1845.04 3924.96 1853.61 3918.39 1862.18C3927.98 1849.85 3938.92 1839.12 3951.1 1829.4C3942.6 1836.02 3934.1 1842.65 3925.6 1849.27C3942.67 1836.28 3961.1 1825.86 3980.67 1817.2C3970.64 1821.47 3960.61 1825.74 3950.57 1830.01C3978.91 1818.05 4008.42 1810.15 4038.83 1805.8C4027.65 1807.3 4016.5 1808.83 4005.32 1810.34C4048.99 1804.73 4093.4 1807.12 4136.92 1812.96C4125.75 1811.46 4114.59 1809.93 4103.42 1808.42C4158.73 1816.37 4212.45 1831.43 4264.03 1852.98C4254 1848.71 4243.97 1844.44 4233.92 1840.17C4287.17 1862.98 4337.08 1892.27 4383.02 1927.73C4374.52 1921.11 4366.02 1914.49 4357.52 1907.86C4400.04 1941.29 4438.3 1979.43 4471.59 2022.22C4465.02 2013.65 4458.45 2005.08 4451.88 1996.51C4495.93 2054.25 4524.33 2119.83 4559.38 2182.99C4600.53 2257.15 4659.44 2330.23 4738.26 2365.37C4784.23 2385.87 4832.16 2399.98 4883.09 2394.32C4931.6 2388.93 4977.87 2375.23 5017.9 2346.02C5091.57 2292.22 5140.27 2215.86 5167.52 2128.79C5193.38 2046.18 5196.15 1957.99 5228.24 1877.08C5224.01 1887.19 5219.77 1897.31 5215.54 1907.44C5217.25 1903.22 5219.07 1899.02 5220.95 1894.87C5235.2 1862.66 5243.31 1832.33 5233.65 1796.95C5225.6 1767.47 5203.01 1735.54 5175.74 1721.02C5146.48 1705.43 5111.06 1697.62 5078.64 1708.21C5049.38 1717.75 5016.4 1737.04 5003.33 1766.61C4977.52 1824.94 4961.71 1882.56 4950.18 1945.13C4940.99 1995 4932.44 2045.42 4913.08 2092.52C4917.32 2082.41 4921.55 2072.29 4925.79 2062.16C4915.42 2086.29 4902.75 2108.94 4887.06 2129.95C4893.63 2121.37 4900.2 2112.8 4906.77 2104.23C4894.48 2119.98 4880.89 2134.11 4865.18 2146.45C4873.68 2139.82 4882.18 2133.2 4890.69 2126.58C4879.36 2134.94 4867.57 2141.96 4854.71 2147.65C4864.74 2143.38 4874.77 2139.11 4884.82 2134.84C4873.31 2139.47 4861.84 2142.7 4849.6 2144.72C4860.78 2143.21 4871.93 2141.69 4883.11 2140.18C4869.73 2141.87 4856.83 2141.87 4843.44 2140.32C4854.61 2141.82 4865.77 2143.35 4876.94 2144.86C4863.47 2142.74 4850.78 2139.21 4838.04 2134.27C4848.07 2138.54 4858.11 2142.81 4868.15 2147.08C4849.91 2139.3 4833.31 2129.2 4817.56 2117.09C4826.06 2123.71 4834.57 2130.34 4843.07 2136.96C4825.88 2123.07 4810.64 2107.48 4796.84 2090.16C4803.41 2098.74 4809.98 2107.31 4816.55 2115.88C4768.47 2053.03 4742.15 1977.14 4699.56 1910.84C4657.35 1845.12 4605.53 1784.36 4544.83 1735.35C4413.01 1628.91 4257.73 1563.75 4088.23 1554.06C3928.37 1544.91 3738.1 1612.29 3686.08 1780.42C3658.44 1869.74 3687.58 1972.21 3754.82 2035.74C3815.88 2093.43 3901.55 2126.8 3985.48 2123.78C4168.31 2117.19 4289.3 1963.55 4368.2 1813.59C4450.9 1656.4 4518.45 1477.87 4503.48 1296.7C4495.85 1204.38 4473.15 1114.14 4426.17 1033.73C4384.1 961.74 4324.13 901.255 4253.73 857.39C4120.28 774.251 3960.13 760.426 3808.18 782.147C3655.8 803.935 3507.64 877.738 3394.83 982.851C3325.96 1047.03 3277.45 1125.36 3242.48 1212.38C3213.13 1285.45 3199.08 1363.32 3188.4 1441.07C3181.74 1489.42 3175.88 1537.88 3169.46 1586.29C3170.96 1575.02 3172.47 1563.77 3173.96 1552.5C3143.82 1776.89 3084.06 1996.34 2996.92 2205C3001.15 2194.89 3005.39 2184.77 3009.62 2174.64C2924.52 2377.01 2814.28 2567.99 2681.14 2742.06C2687.71 2733.48 2694.28 2724.91 2700.85 2716.34C2663.7 2764.66 2626.4 2815.45 2578.44 2853.51C2586.94 2846.88 2595.45 2840.26 2603.95 2833.63C2586.86 2846.53 2568.85 2857.08 2549.21 2865.52C2559.24 2861.25 2569.27 2856.98 2579.32 2852.71C2556.43 2861.88 2532.94 2867.7 2508.58 2871.08C2519.75 2869.57 2530.91 2868.04 2542.08 2866.53C2500.18 2871.55 2458.27 2869.28 2416.52 2863.84C2427.69 2865.35 2438.85 2866.87 2450.02 2868.38C2396.04 2860.91 2336.89 2853.17 2286.35 2831.79C2296.38 2836.05 2306.41 2840.32 2316.46 2844.59C2307.51 2840.41 2299.24 2835.68 2291.21 2829.9C2299.71 2836.53 2308.21 2843.15 2316.71 2849.78C2310.58 2844.83 2305.15 2839.61 2300.01 2833.63C2306.58 2842.21 2313.15 2850.78 2319.72 2859.35C2314.04 2851.9 2309.49 2844.26 2305.57 2835.73C2309.81 2845.85 2314.04 2855.96 2318.28 2866.09C2314.09 2855.62 2311.29 2845.12 2309.4 2833.99C2310.9 2845.25 2312.41 2856.5 2313.91 2867.77C2310.82 2844.54 2311.94 2821.5 2314.93 2798.32C2313.44 2809.59 2311.92 2820.84 2310.43 2832.11C2321.15 2757.58 2343.16 2684.54 2372.09 2615.22C2367.86 2625.34 2363.63 2635.45 2359.39 2645.58C2391.94 2568.92 2433.91 2496.94 2484.33 2430.85C2477.76 2439.42 2471.19 2448 2464.62 2456.57C2514.24 2392.34 2571.27 2334.55 2634.98 2284.52C2626.48 2291.14 2617.98 2297.77 2609.48 2304.39C2651.04 2272.18 2695.02 2243.62 2741.29 2218.76C2799.06 2187.7 2858.38 2155.41 2901.38 2104.18C2947.84 2048.84 2979.5 1986.76 3000.87 1917.52C3020.11 1855.15 3032.98 1786.43 3035.01 1721.32C3037.56 1639.25 3010.8 1561.14 2955.74 1500.62C2914.22 1455 2852.52 1421.67 2792.69 1408.96C2728 1395.21 2659.36 1395.82 2596.66 1418.7C2528.74 1443.48 2469.65 1481.68 2417.51 1532.14C2312.08 1634.17 2256.01 1772.37 2167.86 1887.53C2174.43 1878.96 2181 1870.38 2187.57 1861.81C2155.18 1903.3 2118.24 1940.61 2077.1 1973.28C2085.6 1966.65 2094.1 1960.03 2102.6 1953.4C2061.3 1985.56 2016.61 2012.47 1968.55 2033.02C1978.58 2028.75 1988.62 2024.48 1998.66 2020.21C1958.34 2036.91 1916.55 2048.76 1873.35 2054.84C1884.53 2053.33 1895.68 2051.81 1906.86 2050.3C1869.99 2055.01 1832.94 2055.55 1796.04 2050.99C1807.22 2052.5 1818.37 2054.03 1829.55 2055.53C1795.44 2050.81 1762.49 2041.61 1730.67 2028.43C1740.7 2032.69 1750.73 2036.96 1760.78 2041.23C1727.37 2026.87 1696.21 2008.52 1667.34 1986.29C1675.84 1992.91 1684.34 1999.54 1692.85 2006.16C1665.96 1984.88 1641.85 1960.76 1620.83 1933.55C1627.4 1942.12 1633.97 1950.69 1640.54 1959.26C1622.36 1935.04 1607.14 1909.08 1595.22 1881.18C1599.46 1891.29 1603.69 1901.41 1607.93 1911.54C1597.17 1885.17 1589.78 1857.98 1586 1829.72C1587.5 1840.99 1589.01 1852.24 1590.5 1863.5C1587.38 1836.38 1587.76 1809.42 1591.33 1782.37C1589.83 1793.63 1588.32 1804.88 1586.82 1816.15C1591.04 1787.85 1598.69 1760.59 1609.51 1734.15C1605.27 1744.26 1601.04 1754.38 1596.8 1764.51C1610.21 1733.13 1627.59 1704.07 1648.15 1676.95C1641.58 1685.52 1635.01 1694.09 1628.44 1702.67C1654.55 1669.1 1684.78 1639.5 1718 1613.16C1709.5 1619.78 1700.99 1626.41 1692.49 1633.03C1737.14 1598.32 1786.03 1570.07 1837.92 1547.93C1827.89 1552.2 1817.85 1556.47 1807.81 1560.74C1912.13 1517.23 2025.18 1502.15 2134.81 1478.09C2191.37 1465.67 2247.67 1450.98 2301.42 1429.02C2370.53 1400.8 2429.69 1367.45 2488 1320.61C2581.03 1245.85 2645.99 1140.3 2686.92 1028.88C2728.92 914.504 2734.48 790.33 2712.98 671.087C2671.24 439.716 2499.84 229.506 2287.17 135.897C2165.98 82.5615 2035.36 55.0294 1902.67 62.0607C1771.5 69.0073 1643.92 103.689 1528.03 166.293C1417.61 225.948 1321.55 313.526 1253.26 419.52C1183.4 527.971 1144.17 665.157 1152.1 794.684C1154.4 832.264 1159.71 870.131 1168.33 906.761C1183.57 971.483 1260.19 1016.13 1323.35 995.507C1390.19 973.55 1427.64 908.405 1411.32 839.058Z" fill="#CA224F"/>
<path d="M1567.38 1873.42C1567.38 1873.42 1539.42 2237.79 1383.5 2202.31C1227.57 2166.85 1261.65 2239.01 1261.65 2239.01L1290.97 2287.38L1217.84 2303.14L1057.57 2209.71L1103.69 2194.02L1049.23 2152.26L1105.15 2141.42L1061.05 2084.27L1189.9 2137.89C1189.9 2137.89 1435.27 2054.86 1372.01 1971.8C1308.75 1888.75 1367.84 1835.18 1367.84 1835.18" fill="#CA224F"/>
<path d="M1646.37 1965.86C1646.37 1965.86 1736.18 2333.06 1573.25 2352.41C1410.31 2371.76 1466.6 2430.72 1466.6 2430.72L1510.62 2467.99L1444.62 2508.86L1258.86 2472.87L1298.65 2441.46L1232.31 2419.38L1283.17 2389.33L1221.96 2348.58L1364.41 2356.44C1364.41 2356.44 1576.2 2189.76 1488.08 2130.24C1399.95 2070.72 1440.17 1997.64 1440.17 1997.64" fill="#CA224F"/>
<path d="M5102.17 1344.28L5349 1402.97L5214.43 1929.28L4967.61 1870.57L5102.17 1344.28Z" fill="#CA224F"/>
<path d="M5052.76 1763.09L5164.34 1360.22L4950.21 1308.1L5089.64 1387.01L4922.44 1408.4L5069.43 1465.6L4925.2 1477.6L5042.58 1545.59L4921.48 1564.5L5026.33 1598.59L4896.21 1616.16L5001.26 1643.88L4891.32 1662.09L4981.87 1696.98L4875.31 1719.9L5052.76 1763.09Z" fill="#EEEA4F"/>
<path d="M2215.48 109.061L2238.77 15.2146L2237.73 114.686L2325.3 0L2282.22 125.953L2376.08 81.2746L2315.67 146.013L2215.48 109.061Z" fill="#EEEA4F"/>
<path d="M2885.69 1456.01L2952.09 1386.19L2902.24 1472.04L3034.71 1416.28L2935.34 1504.08L3038.79 1512.25L2954.49 1538.24L2885.69 1456.01Z" fill="#EEEA4F"/>
<path d="M4025.57 795.787L4033.25 699.349L4048.44 797.651L4116.13 670.004L4094.16 801.378L4179.46 741.774L4130.42 815.627L4025.57 795.787Z" fill="#EEEA4F"/>
<path d="M2849.51 2929.24L2922.23 2992.35L2834.54 2946.76L2896.88 3077.15L2804.58 2981.82L2802.06 3086.42L2771.79 3002.94L2849.51 2929.24Z" fill="#EEEA4F"/>
<path d="M800.88 1154.97C800.88 1154.97 1438.81 1753.19 819.228 1678.22C557.23 1646.52 710.299 1122.04 710.299 1122.04" stroke="#804C29" stroke-width="10" stroke-miterlimit="10"/>
<path d="M1009.35 660.752L607.436 1075.36L727.337 1218.83L1358.8 977.345C1416.01 955.472 1429.3 900.34 1389.16 851.443L1239.89 669.63" fill="#CA224F"/>
<path d="M1199.56 741.096C1199.56 741.096 1315.28 713.564 1267.41 623.852C1219.54 534.14 1017.44 530.26 1059.1 464.979C1102.11 397.564 1161.1 343.482 1161.1 343.482L1009.31 450.087C1001.72 460.456 998.323 461.32 997.516 474.264C996.189 496.069 1029.78 535.868 1112.65 580.699C1243.48 651.503 1126.57 715.767 1126.57 715.767L1199.56 741.096Z" fill="#EEEA4F"/>
<path d="M770.115 1100.89L742.996 1126.31L644.854 1031.82L671.957 1006.38L770.115 1100.89Z" fill="#804C29"/>
<path d="M826.504 1191.64C799.586 1206.5 764.772 1197.74 749.112 1172.17C733.469 1146.59 742.694 1113.5 769.611 1098.64C796.528 1083.78 831.343 1092.54 847.002 1118.11C862.645 1143.69 853.421 1176.78 826.504 1191.64Z" stroke="#5D5F69" stroke-width="13" stroke-miterlimit="10"/>
</g>
<defs>
<clipPath id="clip0_188_711">
<rect width="5349" height="3122" fill="white"/>
</clipPath>
</defs>
</svg>
