<svg width="4858" height="2153" viewBox="0 0 4858 2153" fill="none" xmlns="http://www.w3.org/2000/svg">
<g clip-path="url(#clip0_190_886)">
<path d="M423.001 439.712L317.33 271.91L0.00466684 543.343L105.676 711.145L423.001 439.712Z" fill="#EEEA4F"/>
<path d="M3514.27 527.489C3514.27 527.489 3434.52 258.03 3539.22 232.358C3643.93 206.686 3603.93 166.291 3603.93 166.291L3573.16 141.318L3613.64 106.131L3736.41 120.448L3712.41 146.747L3756.78 158.782L3725.5 184.823L3767.63 211.231L3674.64 215.077C3674.64 215.077 3546.8 354.665 3607.51 393.312C3668.23 431.958 3646.37 489.56 3646.37 489.56" fill="#EEEA4F"/>
<path d="M3336.91 521.71C3336.91 521.71 3231.59 258.692 3330.42 213.476C3429.26 168.278 3386.28 133.864 3386.28 133.864L3353.86 113.694L3389.45 70.226L3509.95 62.9199L3489.4 94.2973L3533.68 98.714L3506.06 131.122L3549.66 150.74L3459.91 171.37C3459.91 171.37 3350.48 337.973 3413.36 366.848C3476.23 395.722 3461.03 458.937 3461.03 458.937" fill="#EEEA4F"/>
<path d="M257.32 582.882C292.516 557.67 325.171 527.084 358.062 498.08C405.986 455.827 453.625 413.132 501.849 371.357C541.783 336.74 581.875 301.48 624.493 271.409C630.256 267.342 636.099 263.422 642.036 259.723C647.168 256.539 652.363 253.521 657.621 250.65C660.432 249.105 674.311 242.829 662.69 247.853C651.021 252.914 665.153 247.025 668.011 245.829C672.369 243.989 676.743 242.24 681.149 240.584C692.186 236.406 703.35 232.763 714.64 229.597C723.704 227.039 732.831 224.794 741.989 222.807C746.584 221.813 751.195 220.874 755.821 220.009C758.979 219.42 774.107 217.065 761.174 218.96C748.21 220.856 763.448 218.776 766.622 218.371C772.48 217.635 778.354 216.973 784.228 216.384C794.824 215.335 805.435 214.525 816.046 213.899C836.068 212.722 856.122 212.206 876.176 212.041C885.16 211.967 894.145 211.875 903.13 212.114C907.472 212.243 911.799 212.593 916.125 212.74C934.458 213.366 898.866 206.097 917.578 212.814C919.141 213.366 929.61 216.789 929.784 216.642C926.768 219.126 912.257 202.618 925.126 214.912C923.105 212.979 911.151 198.846 921.368 211.617C930.873 223.524 918.083 206.465 918.131 206.446C918.273 206.373 924.652 219.402 923.862 218.611C916.252 211.102 918.415 200.888 921.415 212.979C924.241 224.389 926.957 235.726 929.168 247.338C933.731 271.391 937.553 295.646 940.79 319.993C941.595 326.03 942.527 332.176 943.111 338.268C941.042 316.718 942.495 333.244 942.906 337.624C944.311 352.935 945.732 368.246 946.79 383.595C950.106 432.271 951.417 481.462 947.516 530.139C947.09 535.476 946.901 541.567 945.969 546.886C950.09 523.146 946.964 538.696 946.048 543.665C943.774 555.958 941.927 568.233 939.163 580.416C936.716 591.182 933.905 601.8 930.668 612.272C929.658 615.566 923.547 631.853 928.615 619.044C934.063 605.297 924.273 628.577 923.12 631.08C919.283 639.416 915.083 647.495 910.551 655.354C898.108 676.904 920.831 642.563 906.177 662.144C900.161 670.168 893.782 677.805 887.024 684.983C884.671 687.485 879.255 691.424 877.834 694.203C881.75 686.602 891.334 682.848 879.191 692.233C872.528 697.386 865.628 702.061 858.49 706.238C841.674 716.065 861.127 705.428 861.08 705.244C861.143 705.557 848.89 709.882 849.806 709.569C846 710.876 842.132 711.796 838.294 712.974C824.667 717.133 843.142 708.465 844.768 712.477C845.068 713.195 816.109 712.201 815.62 712.569C818.02 710.765 837.6 718.679 822.804 712.974C819.267 711.612 815.288 710.508 811.719 709.404C798.897 705.428 816.899 707.269 817.277 712.845C817.246 712.477 806.319 706.459 806.951 706.845C803.571 704.711 800.382 702.226 797.05 699.981C784.133 691.276 799.955 702.208 801.503 704.711C797.476 698.178 787.039 685.829 781.307 681.394C783.77 683.29 792.281 701.821 785.57 686.952C783.865 683.197 781.812 679.351 779.996 675.707C772.37 660.414 782.681 680.713 782.507 683.234C782.633 681.376 780.091 673.389 779.333 670.886C774.454 654.912 780.628 676.351 779.854 679.866C780.36 677.529 779.712 669.782 779.491 666.763C778.275 649.814 779.317 671.659 777.912 675.247C779.665 670.794 780.865 661.519 781.812 656.642C785.081 639.692 780.849 663.009 778.575 664.371C779.57 663.782 782.586 655.188 783.549 653.237C785.349 649.557 787.434 646.17 789.281 642.545C796.75 627.859 786.865 647.238 784.97 648.692C791.239 643.833 796.813 633.509 802.371 627.491C805.166 624.473 808.024 621.547 810.93 618.676C822.046 607.763 815.446 617.83 808.545 620.645C815.067 617.995 822.188 609.585 828.078 605.242C835.61 599.684 843.316 594.439 851.116 589.378C866.717 579.275 882.729 570.147 898.85 561.277C916.82 551.394 934.821 541.585 952.948 532.126C957.828 529.568 987.75 513.134 968.944 523.826C978.876 518.177 989.787 514.036 1000.13 509.546C1019.79 501.025 1039.73 493.351 1059.99 487.02C1069.48 484.057 1079.03 481.37 1088.65 479.033C1093.45 477.855 1098.3 476.917 1103.1 475.794C1122.47 471.249 1086.63 476.77 1108.14 474.764C1125.3 473.163 1142.26 471.801 1159.49 472.684C1165.01 472.96 1178.51 477.745 1182.98 474.911C1176.92 478.757 1164.19 471.304 1176.38 474.138C1182.19 475.481 1187.97 476.714 1193.74 478.297C1201.38 480.395 1208.97 482.824 1216.46 485.622C1220.18 487.002 1223.85 488.676 1227.57 490.038C1242.18 495.375 1224.24 488.345 1222.17 486.947C1237.22 497.179 1252.89 505.092 1267.48 516.502C1280.3 526.532 1263.77 513.962 1262.71 512.085C1264.3 514.883 1268.95 518.287 1271.28 520.79C1276.87 526.789 1281.85 533.378 1287.12 539.727C1298.52 553.437 1282.79 535.328 1283.55 533.838C1283.2 534.519 1290.63 546.002 1291.51 547.658C1292.63 549.756 1303.43 574.527 1303.67 574.472C1300.83 575.006 1296.83 552.848 1300.95 568.252C1302.12 572.613 1303.45 576.919 1304.57 581.299C1307.11 591.237 1309.21 601.304 1311.04 611.462C1312.68 620.572 1314.07 629.736 1315.34 638.938C1315.97 643.557 1316.52 648.195 1317.12 652.832C1318.45 663.009 1314.36 627.657 1317.01 652.63C1321.89 698.325 1325.29 745.032 1335.85 789.549C1359.2 887.895 1421.5 974.298 1510.02 995.977C1589.51 1015.45 1677.35 994.247 1743.68 939.056C1817.38 877.755 1863.26 790.193 1897.92 694.46C1914.36 649.06 1928.9 602.868 1944.14 556.915C1944.99 554.357 1955.07 529.09 1954.01 527.857C1954.64 528.593 1944.73 551.265 1952.81 531.574C1954.74 526.863 1956.55 522.115 1958.54 517.441C1962.49 508.147 1966.71 498.982 1971.35 490.149C1973.67 485.732 1976.16 481.518 1978.58 477.193C1989.79 457.06 1965.85 490.958 1980.87 474.543C1984.04 471.083 1987.26 467.218 1990.26 463.63C1996.71 455.937 1998.43 461.974 1986.13 466.63C1992.89 464.071 2000.13 455.772 2006.59 451.815C2006.18 452.073 2016.7 445.208 2017.38 445.687C2017.39 445.705 1998.98 453.416 2012.48 448.65C2022.24 445.208 2031.87 441.767 2041.87 439.356C2041.11 439.54 2053.74 436.228 2054.01 436.743C2053.65 436.08 2033.93 439.172 2048.42 437.626C2056.81 436.724 2065.17 435.878 2073.57 435.436C2092.63 434.424 2111.74 434.737 2130.81 435.639C2148.75 436.485 2166.61 438.436 2184.52 439.577C2197.26 440.387 2167.15 435.436 2179.53 438.749C2183.67 439.853 2187.88 440.571 2192.02 441.748C2196.09 442.908 2200.04 444.693 2204.1 445.834C2210.56 448.466 2208.09 447.233 2196.72 442.098C2199.5 443.681 2202.17 445.484 2204.73 447.509C2215.4 453.655 2192.38 435.289 2200.64 444.491C2209.06 453.839 2192 426.603 2196.96 438.565C2206.47 461.587 2192.97 418.1 2198.9 443.055C2202.96 460.188 2194.91 448.153 2199.42 437.902C2198.73 439.467 2200.29 450.784 2200.32 451.557C2200.72 462.029 2200.39 472.519 2199.68 482.953C2197.83 510.116 2202.95 462.931 2199.14 489.523C2197.53 500.767 2195.65 511.956 2193.74 523.127C2189.68 546.683 2185.15 570.11 2180 593.372C2175.42 614.057 2170.35 634.613 2164.72 654.93C2161.91 665.07 2158.94 675.155 2155.81 685.167C2154.25 690.154 2152.65 695.141 2151.01 700.11C2149.61 704.361 2142.34 730.052 2149.86 704.287C2137.87 745.363 2115.4 786.31 2093.88 821.405C2091.34 825.564 2088.73 830.183 2085.86 834.121C2098.9 816.326 2090.2 827.515 2087.39 831.269C2081.64 838.943 2076.04 846.691 2070.04 854.107C2058.15 868.848 2045.53 882.779 2032.49 896.14C2020.05 908.893 2007.21 921.131 1994.2 933.112C1976.57 949.343 2007.19 921.647 1989.33 937.565C1981.55 944.503 1973.72 951.405 1965.9 958.306C1935 985.598 1903.88 1012.74 1874.52 1042.32C1816.48 1100.76 1768.17 1172.33 1743.45 1257.8C1714.03 1359.48 1737.11 1488.43 1822.54 1542.88C1921.06 1605.69 2025.1 1539.92 2103.64 1468.16C2168.68 1408.72 2233.64 1348.43 2292.57 1280.73C2354.83 1209.21 2408.01 1128.02 2452.58 1040.48C2495.41 956.318 2532.22 868.075 2577.79 785.813C2583.07 776.299 2588.45 766.858 2593.98 757.528C2598.15 750.479 2609.2 738.37 2611.05 729.923C2610.56 732.168 2598.04 748.639 2608.69 733.585C2611.44 729.721 2614.11 725.801 2616.87 721.954C2623.79 712.311 2630.93 702.87 2638.29 693.687C2650.05 678.983 2662.35 664.886 2675.24 651.526C2681.11 645.434 2687.74 635.957 2694.89 632.184C2680.22 639.913 2686.04 639.858 2691.75 635.11C2696.95 630.804 2702.09 626.461 2707.38 622.338C2721.34 611.444 2735.89 601.524 2750.95 592.857C2751.72 592.415 2760.44 586.379 2762.24 586.636C2755.4 585.643 2746.84 593.556 2757.79 588.918C2767.51 584.796 2777.24 580.784 2787.24 577.6C2795.24 575.042 2803.34 573.276 2811.43 571.122C2827.06 566.945 2808.36 571.932 2805.77 571.656C2809.41 572.043 2814.44 570.607 2818.25 570.294C2827.64 569.521 2837.05 570.313 2846.42 569.779C2858.48 569.08 2829.29 564.037 2840.59 568.712C2853.41 573.993 2846.31 571.803 2838.6 566.742C2824.8 557.688 2827.56 556.216 2832.9 562.639C2831.34 560.762 2817.43 542.358 2819.42 536.341C2818.71 538.494 2825.67 560.117 2820.9 539.948C2817.22 524.397 2820.25 535.568 2819.87 541.512C2818.2 567.479 2824.34 519.888 2819.26 546.076C2817.14 556.97 2814.35 567.663 2811.16 578.208C2796.3 627.252 2779.36 675.56 2763.42 724.144C2746.54 775.636 2729.66 827.11 2712.78 878.602C2694.39 934.713 2663.76 998.057 2680.89 1059.23C2717.49 1189.95 2860.42 1167.4 2945.65 1126.55C3027.19 1087.46 3097.3 1024.69 3157.55 950.116C3214.18 880.037 3263.28 802.155 3321.36 733.622C3334.77 717.814 3348.63 702.502 3363.11 688.037C3366.74 684.412 3370.45 680.897 3374.1 677.308C3388.41 663.23 3371.61 680.014 3371.38 679.627C3371.02 679.002 3396.93 659.053 3398.89 657.599C3414.07 646.428 3429.86 636.895 3445.93 627.657C3461.07 618.952 3444.49 627.602 3442.63 629.074C3446.82 625.761 3453.4 624.252 3458.2 622.302C3467.55 618.51 3477.04 615.143 3486.65 612.364C3492.39 610.708 3506.82 603.954 3512.27 606.217C3508.51 606.788 3504.75 607.377 3501.01 607.947C3504.23 607.505 3507.45 607.156 3510.67 606.898C3514.97 606.512 3519.26 606.254 3523.56 606.107C3532.15 605.831 3540.7 606.052 3549.28 606.843C3554.16 607.285 3564.55 612.382 3553.18 607.119C3539.84 600.954 3559.75 609.272 3563.29 610.321C3571.59 612.769 3579.44 616.229 3587.57 619.283C3598.54 623.387 3570.26 609.235 3580.28 615.713C3583.28 617.646 3586.51 619.173 3589.56 621.013C3596.43 625.136 3603.11 629.663 3609.61 634.503C3612.5 636.656 3615.36 638.864 3618.17 641.146C3621.03 643.447 3633.38 654.709 3621.44 643.539C3608.9 631.816 3629.73 651.967 3632.23 654.544C3637.44 659.954 3642.52 665.53 3647.51 671.235C3658.9 684.228 3669.73 697.865 3680.28 711.778C3700.5 738.462 3719.63 766.251 3739.41 793.377C3781.07 850.463 3828.64 907.532 3887.29 940.528C3972.76 988.634 4068.51 992.112 4157.84 955.067C4239.54 921.168 4311.46 866.953 4380.61 806.958C4400.27 789.899 4415.57 772.324 4422.33 743.725C4428.31 718.403 4425.61 684.67 4413.17 662.181C4388.93 618.382 4329.69 588.863 4288.95 624.215C4254.15 654.415 4218.71 683.75 4181.3 709.44C4163.67 721.55 4145.62 732.849 4127.05 742.879C4124.35 744.351 4110.25 751.381 4121.63 745.878C4134.9 739.474 4113.47 749.357 4112.84 749.633C4101.99 754.252 4090.98 758.356 4079.8 761.797C4070.99 764.502 4062.12 766.582 4053.2 768.606C4034.88 772.729 4056.45 767.005 4057.3 768.036C4056.78 767.41 4045.9 769.085 4043.93 769.195C4033.81 769.766 4023.87 768.588 4013.82 768.698C4000.96 768.864 4030.55 772.765 4017.89 769.637C4011.19 767.981 4004.5 766.656 3997.87 764.631C3989.56 762.092 3979.82 755.724 3971.43 754.473C3973.19 754.73 3991.68 765.92 3978.92 757.822C3975.92 755.908 3972.78 754.252 3969.76 752.375C3963.74 748.602 3957.85 744.535 3952.11 740.21C3948.51 737.505 3945.05 734.579 3941.5 731.8C3929.18 722.175 3941.78 729.868 3945.51 735.683C3936.89 722.194 3921.14 711.133 3910.77 698.987C3899.51 685.811 3888.79 672.027 3878.3 658.004C3857.05 629.589 3836.88 600.071 3815.73 571.583C3767.22 506.288 3712.24 451.502 3643.09 418.634C3553.16 375.884 3452.89 394.784 3366.47 438.675C3287.32 478.868 3221 546.518 3163.46 620.443C3106.42 693.687 3055.97 774.201 2993.68 841.759C2987.16 848.826 2980.51 855.764 2973.75 862.517C2970.37 865.904 2966.88 869.161 2963.5 872.529C2951.11 884.877 2964.1 872.529 2966.16 870.468C2950.48 886.184 2931.62 899.213 2913.72 911.083C2905.14 916.77 2896.28 921.647 2887.55 926.984C2882.7 929.947 2874.75 937.565 2891.34 925.493C2888.14 927.83 2882.55 929.523 2879.22 930.922C2871.1 934.345 2862.86 937.4 2854.52 940.031C2846.69 942.497 2831.04 949.711 2822.84 947.834C2826.59 947.209 2830.33 946.601 2834.07 945.976C2830.82 946.381 2827.56 946.693 2824.3 946.914C2820.21 947.227 2816.1 947.282 2812.01 947.503C2808.27 947.706 2796.25 946.841 2811.65 948.276C2814 948.626 2816.37 948.975 2818.72 949.343C2809.47 946.288 2812.12 947.982 2826.66 954.404C2844.65 967.084 2856.29 995.37 2857.03 1018.26C2857.25 1025.2 2852.51 1037.7 2858.89 1023.21C2864.94 1009.5 2868.64 993.511 2873.36 979.083C2890.73 926.119 2908.08 873.173 2925.45 820.209C2942.33 768.717 2959.21 717.243 2976.09 665.751C2990.71 621.161 3004.01 574.453 3000.97 525.888C2996.25 450.232 2956.45 385.435 2891.8 365.468C2845.01 351.003 2791.15 358.198 2744.92 371.78C2662.44 396.017 2588.07 453.803 2527.9 522.52C2402.33 665.899 2345.66 863.033 2244.13 1026.27C2243.95 1026.54 2229.69 1048.94 2238.17 1035.87C2245.33 1024.85 2235.96 1039.04 2234.16 1041.64C2227.4 1051.39 2220.47 1061 2213.38 1070.44C2199.22 1089.32 2184.42 1107.57 2169.2 1125.3C2138.65 1160.89 2106.28 1194.31 2073.16 1226.6C2058.4 1241 2043.48 1255.17 2028.49 1269.23C2020.06 1277.12 2011.6 1285 2003.13 1292.84C1998.43 1297.2 1993.72 1301.54 1989.02 1305.89C1986.81 1307.93 1970.4 1322.41 1981.77 1312.64C1993.77 1302.33 1975.97 1317.37 1975.07 1318.11C1971.41 1321.12 1967.68 1324.09 1963.94 1326.98C1956.39 1332.77 1948.67 1338.28 1940.75 1343.34C1936.8 1345.86 1932.77 1348.08 1928.81 1350.55C1912.81 1360.47 1931.76 1349.89 1932.35 1349.08C1931.1 1350.81 1902.38 1360.29 1901.95 1358.87C1902.64 1361.15 1923.93 1354.62 1905.17 1356.75C1893.45 1358.08 1922.89 1362.66 1911.9 1357.93C1905.77 1355.3 1894.16 1348.89 1914.16 1360.23C1901.98 1353.33 1918.69 1358.78 1917.74 1365.13C1917.83 1364.44 1909.01 1356.49 1910.1 1356.48C1919.07 1356.27 1919.76 1376 1914.96 1363.14C1908.72 1346.41 1917.27 1371.42 1917.2 1371.9C1917.52 1369.32 1913.3 1356.7 1912.58 1353.99C1908.19 1337.7 1913.84 1360.29 1913.33 1363.25C1913.9 1359.92 1912.83 1354.01 1912.78 1350.33C1912.72 1344.86 1913.24 1339.43 1913.3 1334.01C1913.44 1319.98 1909.43 1356.24 1912.26 1342.58C1914.23 1333.01 1915.84 1323.53 1918.51 1314.17C1919.67 1310.12 1921.51 1305.96 1922.41 1301.89C1916.81 1326.99 1918.97 1311.42 1922.56 1303.11C1929.28 1287.52 1937.48 1273.26 1945.72 1258.76C1956.25 1240.24 1935.12 1273.29 1943.35 1262.16C1945.78 1258.88 1948.07 1255.48 1950.5 1252.19C1956.62 1243.92 1962.98 1235.95 1969.55 1228.19C1980.89 1214.81 1992.79 1202.11 2005.04 1189.87C2010.89 1184.04 2016.81 1178.3 2022.78 1172.65C2027.55 1168.12 2039.45 1152.77 2045.59 1151.58C2042.56 1154.32 2039.51 1157.06 2036.48 1159.78C2038.8 1157.7 2041.14 1155.62 2043.46 1153.56C2046.57 1150.8 2049.7 1148.04 2052.81 1145.28C2059.84 1139.06 2066.88 1132.86 2073.91 1126.64C2092.54 1110.11 2111.16 1093.53 2129.44 1076.47C2156.88 1050.86 2183.46 1023.73 2206.85 993.051C2267.5 913.476 2308.84 819.473 2337.61 718.918C2350.65 673.333 2360.68 626.608 2368.78 579.514C2377.1 531.096 2385.5 480.745 2380.18 431.314C2372.72 362.063 2348.03 303.743 2296.33 264.895C2255.02 233.848 2203.58 228.916 2155.91 225.622C2071.24 219.788 1978.86 222.512 1904.46 276.176C1820.14 336.998 1787.9 442.19 1754.63 544.972C1747.46 567.129 1740.15 589.231 1732.55 611.186C1727.15 626.829 1734.22 607.966 1733.85 607.653C1734.05 607.818 1729.11 620.185 1728.4 622.007C1723.79 633.859 1718.97 645.6 1713.84 657.157C1705.19 676.628 1695.68 695.62 1685.01 713.691C1681.97 718.826 1673.73 734.561 1685.46 714.041C1683.09 718.182 1679.75 722.286 1677.03 726.003C1670.27 735.205 1663.15 744.093 1655.51 752.32C1653 755.025 1649.07 757.951 1647.05 760.951C1656.55 746.835 1658.86 751.013 1651.97 756.479C1644.88 762.092 1637.79 767.539 1630.31 772.434C1626.49 774.919 1604.43 784.58 1618.09 780.256C1633.07 775.508 1615.31 781.231 1613.02 782.151C1608.55 783.936 1604.03 785.556 1599.48 787.028C1591.48 789.623 1582.68 790.359 1574.82 793.285C1576.83 792.53 1597.56 791.445 1582.46 791.721C1578.82 791.794 1575.17 792.236 1571.52 792.291C1567.05 792.365 1539.77 790.432 1556.68 792.199C1571.38 793.727 1559.54 792.641 1555.63 791.371C1551.42 790.009 1547.14 788.482 1542.88 787.304C1525.48 782.556 1557.25 797.094 1547.44 789.991C1544.47 787.838 1541.12 786.273 1538.09 784.231C1535.49 782.464 1529.57 775.949 1526.91 775.784C1529.75 775.968 1542.47 793.027 1532.74 780.219C1530.29 776.998 1527.35 773.778 1524.8 770.76C1514.09 758.117 1527.67 773.888 1528.3 776.593C1527.46 772.968 1515.86 748.878 1514.26 748.363C1518.86 749.835 1520.9 769.858 1516.93 755.522C1515.48 750.277 1513.84 745.124 1512.48 739.842C1510.27 731.266 1508.41 722.599 1506.78 713.857C1504.9 703.827 1503.37 693.724 1501.98 683.584C1501.36 679.038 1500.95 674.382 1500.24 669.855C1505.15 700.68 1501.06 676.591 1500.38 670.223C1495.35 622.909 1491.75 574.472 1480.43 528.464C1467.64 476.494 1445.86 430.854 1415.46 390.22C1357.06 312.098 1268.96 274.777 1182.92 263.422C1095.09 251.828 1004.82 279.801 924.068 318.245C842.274 357.186 758.569 397.875 689.17 462.783C619.44 528.004 576.427 639.877 608.324 742.621C641.657 850.003 733.494 927.573 832.72 925.143C930.384 922.751 1014.17 854.291 1067.3 762.294C1119.98 671.07 1133.35 553.4 1131.14 445.852C1129.93 386.392 1124.07 327.171 1116.41 268.41C1109.29 213.789 1101.13 158.432 1079.21 108.818C1027.89 -7.63732 908.814 -3.60704 812.477 2.44759C718.572 8.35499 623.798 27.7887 541.214 82.906C496.733 112.59 455.473 149.452 414.37 184.97C364.726 227.904 315.712 271.851 266.415 315.319C233.523 344.322 200.869 374.927 165.672 400.121C125.217 429.106 106.111 496.148 133.097 544.916C159.261 592.212 214.022 613.873 257.32 582.882Z" fill="#EEEA4F"/>
<path d="M4458.98 949.822L4858 694.994L4829.18 529.918L4340.71 560.338C4296.45 563.099 4269.27 608.904 4278.62 664.942L4313.41 873.339" fill="#EEEA4F"/>
<path d="M4363.52 820.834C4363.52 820.834 4279.66 811.32 4280.2 906.501C4280.75 1001.68 4409.66 1065.19 4360.78 1111.73C4310.29 1159.8 4254 1191.09 4254 1191.09L4387.83 1139.94C4396.21 1132.84 4398.7 1133.06 4403.58 1121.63C4411.81 1102.35 4403.6 1056.47 4365.34 991.395C4304.94 888.65 4401.97 865.37 4401.97 865.37L4363.52 820.834Z" fill="#684B98"/>
<path d="M364.741 430.559L75.5566 627.582L164.82 806.185L132.086 659.549L236.824 757.122L187.621 620.074L274.342 708.593L247.656 584.096L325.439 652.463L286.548 559.233L368.594 634.539L326.008 545.468L397.222 606.842L366.715 522.648L438.719 578.575L364.741 430.559Z" fill="#684B98"/>
<path d="M2955.42 1107.26L2988.64 1204.96L2935.38 1116.5L2930.82 1273.64L2895.29 1134.98L2847.9 1234.34L2858.85 1138.62L2955.42 1107.26Z" fill="#684B98"/>
<path d="M902.103 887.232L912.635 991.597L880.691 890.159L841.61 1040.64L837.867 895.992L770.143 977.794L801.85 888.594L902.103 887.232Z" fill="#684B98"/>
<path d="M4031.44 949.822L4041.97 1054.19L4010.03 952.748L3970.95 1103.23L3967.2 958.582L3899.49 1040.38L3931.19 951.184L4031.44 949.822Z" fill="#684B98"/>
</g>
<defs>
<clipPath id="clip0_190_886">
<rect width="4858" height="2153" fill="white"/>
</clipPath>
</defs>
</svg>
